<?xml version="1.0" encoding="UTF-8"?>
<svg version="1.1" xmlns="http://www.w3.org/2000/svg" width="2000" height="360">
<path d="M0 0 C1.22783203 -0.00386719 2.45566406 -0.00773437 3.72070312 -0.01171875 C5.00009766 -0.00011719 6.27949219 0.01148437 7.59765625 0.0234375 C8.87318359 0.01183594 10.14871094 0.00023438 11.46289062 -0.01171875 C12.69201172 -0.00785156 13.92113281 -0.00398438 15.1875 0 C16.30890381 0.00338379 17.43030762 0.00676758 18.58569336 0.01025391 C22.03757098 0.44609012 23.88976559 1.32407132 26.66015625 3.3984375 C29.14376066 7.12384412 28.89174295 9.02906723 28.85546875 13.47265625 C28.85047363 14.72393311 28.84547852 15.97520996 28.84033203 17.2644043 C28.82212402 18.85551025 28.80391602 20.44661621 28.78515625 22.0859375 C28.74390625 27.1390625 28.70265625 32.1921875 28.66015625 37.3984375 C48.46015625 37.0684375 68.26015625 36.7384375 88.66015625 36.3984375 C88.99015625 27.1584375 89.32015625 17.9184375 89.66015625 8.3984375 C92.66015625 2.3984375 92.66015625 2.3984375 95.66015625 0.3984375 C99.76765779 -0.00977419 103.87566812 0.02683148 108.00195312 0.02783203 C110.02169625 0.02346659 112.03923834 -0.01283826 114.05859375 -0.05078125 C115.97671875 -0.05658203 115.97671875 -0.05658203 117.93359375 -0.0625 C119.10325684 -0.07071777 120.27291992 -0.07893555 121.47802734 -0.08740234 C125.340306 0.50228114 126.9287607 1.6464733 129.66015625 4.3984375 C131.61575923 7.55616426 131.91580211 9.98034983 131.93431091 13.66722107 C131.94428604 14.73409149 131.95426117 15.80096191 131.96453857 16.90016174 C131.96520325 18.06546921 131.96586792 19.23077667 131.96655273 20.43139648 C131.97487625 21.66265259 131.98319977 22.89390869 131.99177551 24.16247559 C132.01174413 27.53650336 132.0225161 30.91028439 132.02760196 34.28435016 C132.03124741 36.39303392 132.03748837 38.501694 132.04460335 40.61036873 C132.069088 47.96885342 132.08214809 55.32726768 132.08569336 62.68579102 C132.08933032 69.54217901 132.11923913 76.39811983 132.16109794 83.25437111 C132.19579388 89.14409335 132.21124165 95.0336673 132.21193939 100.92349106 C132.21273231 104.43990326 132.22147705 107.95585957 132.24993706 111.47216606 C132.28096805 115.39364824 132.27206134 119.31448721 132.25952148 123.23608398 C132.28177292 124.98100883 132.28177292 124.98100883 132.30447388 126.76118469 C132.22454709 135.51784609 132.22454709 135.51784609 129.18519592 138.59608459 C127.93530128 139.48824928 127.93530128 139.48824928 126.66015625 140.3984375 C126.33015625 140.7284375 126.00015625 141.0584375 125.66015625 141.3984375 C123.95080713 141.50556692 122.23702783 141.54253303 120.52435303 141.55233765 C118.854506 141.56523834 118.854506 141.56523834 117.15092468 141.57839966 C115.3026281 141.58478958 115.3026281 141.58478958 113.41699219 141.59130859 C112.12765274 141.59948608 110.83831329 141.60766357 109.50990295 141.61608887 C105.2214671 141.64234801 100.93302129 141.65762249 96.64453125 141.671875 C95.169609 141.67723349 93.69468682 141.68261099 92.21976471 141.68800735 C86.08450035 141.70964371 79.94923865 141.72838032 73.81394577 141.73962975 C65.01550222 141.75586676 56.21750051 141.78902923 47.41922355 141.84603059 C41.23658608 141.88472212 35.0540668 141.90426159 28.87131143 141.90955031 C25.17710672 141.91320556 21.48337282 141.92524353 17.78929901 141.95765305 C13.66623145 141.99330603 9.54411341 141.98936492 5.42089844 141.98193359 C4.19679764 141.99833893 2.97269684 142.01474426 1.71150208 142.03164673 C-6.55196252 141.97051838 -6.55196252 141.97051838 -10.57489014 139.04946899 C-13.02183693 135.37405624 -13.46595215 132.72870733 -13.48028564 128.41522217 C-13.48599579 127.38627335 -13.49170593 126.35732452 -13.49758911 125.29719543 C-13.49870697 124.16883774 -13.49982483 123.04048004 -13.50097656 121.87792969 C-13.50594147 120.68904648 -13.51090637 119.50016327 -13.51602173 118.2752533 C-13.52813113 115.01266248 -13.53558898 111.75010751 -13.54003239 108.48749828 C-13.54296538 106.44765891 -13.54707066 104.40782514 -13.55153656 102.36798859 C-13.56521028 95.98157647 -13.57487694 89.59517718 -13.57873845 83.20875144 C-13.58321584 75.84472466 -13.60074928 68.48088381 -13.62973905 61.11691356 C-13.65138492 55.41997168 -13.66144432 49.72308199 -13.66277957 44.02609944 C-13.66382574 40.6259771 -13.66969286 37.22602955 -13.68759918 33.82595062 C-13.70465779 30.02933181 -13.7027794 26.23316505 -13.69628906 22.43652344 C-13.70550385 21.31626266 -13.71471863 20.19600189 -13.72421265 19.04179382 C-13.6879913 12.27623 -13.38914364 6.65429348 -8.54858398 1.48583984 C-5.59219418 0.03035624 -3.29063243 0.00993934 0 0 Z M28.66015625 77.3984375 C28.66015625 85.6484375 28.66015625 93.8984375 28.66015625 102.3984375 C36.46591212 102.42099247 44.27165032 102.43935488 52.07742977 102.45024967 C55.70161585 102.45547752 59.32577855 102.46257337 62.94995117 102.47387695 C66.444756 102.48470934 69.93953829 102.49071508 73.4343586 102.49331474 C75.42255014 102.49607301 77.41073256 102.50388438 79.39891052 102.51173401 C81.2006649 102.51184731 81.2006649 102.51184731 83.03881836 102.51196289 C84.1024913 102.5141835 85.16616425 102.51640411 86.2620697 102.51869202 C88.61259039 102.66960513 88.61259039 102.66960513 89.66015625 101.3984375 C89.66015625 93.4784375 89.66015625 85.5584375 89.66015625 77.3984375 C69.53015625 77.3984375 49.40015625 77.3984375 28.66015625 77.3984375 Z " fill="#1087CE" transform="translate(1707.33984375,75.6015625)"/>
<path d="M0 0 C1.51110352 -0.01836914 1.51110352 -0.01836914 3.05273438 -0.03710938 C20.68182655 -0.07112049 37.84874279 5.06182509 50.875 17.3125 C61.55479941 28.49577567 65.21788392 41.90058042 65.20776367 57.02124023 C65.21112228 57.75897675 65.2144809 58.49671326 65.21794128 59.25680542 C65.22735813 61.66991915 65.22938948 64.08296285 65.23046875 66.49609375 C65.23368705 68.18945849 65.23705155 69.88282296 65.24055481 71.57618713 C65.24652238 75.115658 65.24839708 78.65510454 65.24780273 82.19458008 C65.24770108 86.7111698 65.26136713 91.22760243 65.27857494 95.74415493 C65.28973647 99.23847662 65.29172069 102.73276078 65.29119301 106.22709846 C65.29236633 107.89152634 65.29675139 109.55595539 65.30452538 111.22036552 C65.37308154 127.40920462 63.61560875 141.90121319 52.0625 154.1875 C36.21230646 169.39587233 16.09705757 172.55432783 -4.94140625 172.34375 C-22.6133943 171.94400663 -39.78847724 166.97738724 -52.75 154.53515625 C-61.90893455 144.70565685 -66.06378334 132.8406178 -66.11450195 119.51416016 C-66.12107315 118.75723877 -66.12764435 118.00031738 -66.13441467 117.22045898 C-66.1540735 114.72249227 -66.16579907 112.22458574 -66.17578125 109.7265625 C-66.17985678 108.86726513 -66.1839323 108.00796776 -66.18813133 107.12263107 C-66.20896922 102.56661981 -66.22327591 98.01063839 -66.23266602 93.45458984 C-66.24367349 88.78701658 -66.27801375 84.11992754 -66.31783772 79.45252419 C-66.34420785 75.83185039 -66.35237617 72.21128791 -66.35594749 68.59052658 C-66.36076783 66.87241758 -66.37224875 65.15431197 -66.39098549 63.43629837 C-66.56343887 46.56321827 -64.32785149 30.92173006 -52.75390625 17.69140625 C-37.99765302 3.32283784 -19.73245475 0.01257645 0 0 Z M-19.8125 41.5625 C-23.68940796 46.3516216 -24.19324828 50.33101339 -24.24389648 56.42114258 C-24.25638176 57.4856086 -24.25638176 57.4856086 -24.26911926 58.57157898 C-24.29313656 60.90845288 -24.30198143 63.24504716 -24.30859375 65.58203125 C-24.31756694 67.21481913 -24.3266889 68.8476062 -24.33595276 70.48039246 C-24.35242322 73.90076694 -24.36013922 77.32104378 -24.36303711 80.74145508 C-24.36841656 85.10946743 -24.40608597 89.47655309 -24.45178127 93.84430408 C-24.48162701 97.21680495 -24.4887623 100.58908475 -24.48976326 103.96170616 C-24.49395129 105.57117643 -24.50632841 107.18064823 -24.52728081 108.78998756 C-24.82666493 120.92178259 -24.82666493 120.92178259 -18.9375 131.1875 C-14.48048494 135.64451506 -8.13505405 136.42963251 -2.03833008 136.5168457 C-1.36568115 136.51128662 -0.69303223 136.50572754 0 136.5 C0.70294189 136.49508545 1.40588379 136.4901709 2.13012695 136.48510742 C9.02853854 136.32903476 13.39084492 135.22028104 18.9375 131 C24.6527492 123.43569959 23.35599197 113.33271645 23.328125 104.3046875 C23.3294744 102.76107726 23.33141722 101.21746744 23.33392334 99.67385864 C23.3368599 96.45131349 23.3326233 93.22887978 23.32324219 90.00634766 C23.31182924 85.88627223 23.31842801 81.7664569 23.33038712 77.64639091 C23.33762912 74.46357274 23.33530738 71.28081582 23.33013153 68.09799576 C23.3288025 66.57902114 23.33041644 65.06004086 23.33509064 63.54107285 C23.34019671 61.41639298 23.33238983 59.2921295 23.32128906 57.16748047 C23.31969788 55.9613913 23.31810669 54.75530212 23.31646729 53.51266479 C22.95141841 48.73312134 21.92211415 45.30760328 19 41.5 C8.7075231 33.3974118 -9.69284458 33.20278465 -19.8125 41.5625 Z " fill="#1087CF" transform="translate(998.9375,88.8125)"/>
<path d="M0 0 C1.51110352 -0.01836914 1.51110352 -0.01836914 3.05273438 -0.03710938 C20.72275629 -0.07119945 37.83459443 5.14802984 50.9375 17.4375 C61.3670034 28.52829437 65.1641849 42.02598441 65.20776367 56.91357422 C65.21112228 57.63995087 65.2144809 58.36632751 65.21794128 59.11471558 C65.22735727 61.49055746 65.22938954 63.86632818 65.23046875 66.2421875 C65.23368746 67.91073637 65.23705198 69.57928496 65.24055481 71.24783325 C65.24652244 74.7360296 65.24839711 78.22420126 65.24780273 81.71240234 C65.24770116 86.15939244 65.26135888 90.60622271 65.27857494 95.05317497 C65.28974824 98.49692498 65.29172032 101.94063696 65.29119301 105.38440323 C65.29236489 107.02288489 65.29674162 108.6613678 65.30452538 110.29983139 C65.37864331 127.50971872 63.59902066 142.33546289 51.0625 155.1875 C33.40221919 170.4663187 12.53579687 173.09975074 -9.9375 172.1875 C-27.16288971 170.64545087 -42.94299454 165.06017461 -54.9375 152.1875 C-59.91259346 146.17235468 -62.65910845 139.60687762 -64.9375 132.1875 C-65.20358063 131.362286 -65.20358063 131.362286 -65.47503662 130.520401 C-66.14300287 127.1508388 -66.09343011 123.80188389 -66.09863281 120.38061523 C-66.10359772 119.59790756 -66.10856262 118.81519989 -66.11367798 118.0087738 C-66.12827144 115.42120477 -66.1350989 112.83369717 -66.140625 110.24609375 C-66.14638124 108.43970235 -66.15213891 106.63331095 -66.15789795 104.82691956 C-66.16840165 101.036547 -66.17424763 97.2461956 -66.17773438 93.45581055 C-66.18320065 88.62312053 -66.2071912 83.79071489 -66.23570633 78.95811367 C-66.25443204 75.22350784 -66.25954369 71.48896894 -66.26107025 67.75432014 C-66.26407779 65.97430946 -66.27204134 64.19429942 -66.28525543 62.41433525 C-66.39651683 46.2671725 -64.28328525 29.65414528 -52.6875 17.25 C-45.41018142 10.80297951 -37.0550849 6.39403963 -27.9375 3.1875 C-26.9475 2.795625 -25.9575 2.40375 -24.9375 2 C-16.86942205 -0.18510444 -8.30199109 0.00529126 0 0 Z M-19.8125 41.625 C-23.68816203 46.29859245 -24.1905857 49.31913142 -24.2121582 55.43115234 C-24.21726913 56.15361649 -24.22238007 56.87608063 -24.22764587 57.62043762 C-24.24152706 60.00485558 -24.24058605 62.38898397 -24.23828125 64.7734375 C-24.2421694 66.4348664 -24.24650431 68.09629432 -24.25126648 69.75772095 C-24.25872581 73.23955507 -24.2584398 76.7212878 -24.25317383 80.203125 C-24.24738385 84.65744617 -24.26429998 89.11135091 -24.2875185 93.56560326 C-24.30227684 96.99720676 -24.30312462 100.4287105 -24.30000877 103.86034012 C-24.30052107 105.50213062 -24.30574164 107.14392685 -24.31582069 108.78568649 C-24.32820688 111.08574929 -24.32138067 113.38500792 -24.30981445 115.68505859 C-24.31044388 116.99203705 -24.3110733 118.2990155 -24.3117218 119.64559937 C-23.74562237 125.00356601 -21.96629907 128.15870093 -18.1875 131.9375 C-10.36250371 137.35480512 -1.07225974 136.90748106 8.0625 136.1875 C13.25488956 135.0437446 16.77439624 133.78450532 20.15612793 129.59179688 C22.35372677 125.66744287 22.62946901 122.63185424 22.58007812 118.2578125 C22.5870874 117.48628845 22.59409668 116.7147644 22.60131836 115.91986084 C22.61884346 113.38370171 22.60729582 110.84866938 22.59375 108.3125 C22.59644651 106.54182726 22.60033025 104.77115597 22.60534668 103.00048828 C22.61123428 99.29510354 22.60270275 95.59010532 22.58398438 91.88476562 C22.56119509 87.14337394 22.57432216 82.40288802 22.59827423 77.66152954 C22.61275229 74.00684833 22.60811705 70.35238064 22.59776306 66.69769287 C22.59510132 64.94984835 22.59834606 63.20198422 22.60768127 61.4541626 C22.61788029 59.0079845 22.60230062 56.56325792 22.58007812 54.1171875 C22.58817505 53.40012634 22.59627197 52.68306519 22.60461426 51.9442749 C22.52034526 46.91838188 21.23518796 44.04808677 18.0625 40.1875 C7.54493518 33.69793873 -10.25249732 33.51978034 -19.8125 41.625 Z " fill="#1087CF" transform="translate(1493.9375,88.8125)"/>
<path d="M0 0 C1.1665361 -0.00708481 2.3330722 -0.01416962 3.53495789 -0.02146912 C5.46437477 -0.01775299 5.46437477 -0.01775299 7.43276978 -0.01396179 C8.79601827 -0.01830724 10.15926432 -0.02348982 11.52250671 -0.02944946 C15.23124366 -0.04287038 18.93987888 -0.04341461 22.64863539 -0.04088616 C25.74260076 -0.03981831 28.8365454 -0.04469517 31.93050635 -0.04949158 C39.22961636 -0.06059795 46.52867492 -0.06101817 53.82778931 -0.05497742 C61.36113412 -0.04893869 68.8942921 -0.0612434 76.42760503 -0.08254749 C82.89136077 -0.10015568 89.35505701 -0.106166 95.81883585 -0.10290974 C99.68107784 -0.10109512 103.54318664 -0.10375055 107.40540695 -0.11762428 C111.03829836 -0.13018502 114.67089847 -0.12827542 118.30378532 -0.11521339 C120.27347952 -0.11171367 122.24318254 -0.12303916 124.21284485 -0.13478088 C125.3850206 -0.12776657 126.55719635 -0.12075226 127.76489258 -0.11352539 C128.78364157 -0.11369313 129.80239056 -0.11386087 130.85201073 -0.1140337 C133.9397886 0.32138249 135.29259157 1.09507379 137.50942993 3.26069641 C138.51328138 6.27225076 138.64218577 8.29208604 138.65660095 11.44046021 C138.66733391 13.04915733 138.66733391 13.04915733 138.67828369 14.69035339 C138.6809726 15.86703583 138.6836615 17.04371826 138.68643188 18.25605774 C138.69300308 19.49531509 138.69957428 20.73457245 138.7063446 22.01138306 C138.72609295 26.1218337 138.73774442 30.23224533 138.74771118 34.34272766 C138.75175944 35.7588166 138.75587638 37.17490534 138.76006126 38.59099388 C138.77910761 45.2438346 138.79334022 51.89666425 138.80167323 58.54952699 C138.81144624 66.22490575 138.83776943 73.89999617 138.87817413 81.57527333 C138.90834663 87.51083742 138.92314314 93.4463189 138.92645425 99.38195819 C138.92880332 102.92574691 138.93774471 106.46922739 138.96291542 110.01293373 C138.99055317 113.96776663 138.98636148 117.92222079 138.97940063 121.87715149 C138.99861572 123.6330661 138.99861572 123.6330661 139.01821899 125.42445374 C138.97397401 132.31194467 138.48558361 136.28454274 133.50942993 141.26069641 C129.14655018 141.50346689 124.77797815 141.48923232 120.40908813 141.50093079 C118.21623443 141.51061119 116.02432802 141.54160868 113.83169556 141.57319641 C112.43651884 141.5797289 111.0413354 141.58497841 109.64614868 141.58882141 C108.37473022 141.59816711 107.10331177 141.60751282 105.79336548 141.61714172 C102.26678094 141.23435878 100.95164892 140.77642701 98.50942993 138.26069641 C96.05460458 134.5932498 96.2514733 130.90659968 96.31411743 126.65132141 C96.31694733 125.92451172 96.31977722 125.19770203 96.32269287 124.4488678 C96.33385471 122.13597391 96.35895142 119.82347253 96.38442993 117.51069641 C96.39446492 115.93908744 96.40358987 114.36747237 96.41177368 112.79585266 C96.43378089 108.9506502 96.46828278 105.10573977 96.50942993 101.26069641 C95.30753021 101.27179947 94.10563049 101.28290253 92.86730957 101.29434204 C81.53783075 101.39572203 70.20844401 101.47066397 58.87861443 101.51975727 C53.05386315 101.54584529 47.22947819 101.58122976 41.40493774 101.63789368 C35.78337125 101.69224041 30.16215699 101.72212293 24.54034805 101.73508263 C22.39611389 101.74431762 20.2518989 101.76235155 18.10781479 101.78934669 C15.10307993 101.82567159 12.09979844 101.83064021 9.09487915 101.82832336 C8.20942917 101.84629974 7.32397919 101.86427612 6.41169739 101.88279724 C2.1769567 101.84749157 -0.64745434 101.5870321 -4.04312134 98.92211914 C-7.08406397 95.6153149 -7.24001901 94.04565345 -7.21713257 89.60444641 C-7.21519897 87.69985657 -7.21519897 87.69985657 -7.21322632 85.75679016 C-7.18099976 84.43807922 -7.14877319 83.11936829 -7.11557007 81.76069641 C-7.12201538 80.44198547 -7.12846069 79.12327454 -7.13510132 77.76460266 C-7.01390542 66.91206067 -7.01390542 66.91206067 -2.49057007 62.26069641 C0.93644974 60.54718651 4.87042796 61.13210659 8.64077759 61.14717102 C9.58716599 61.14702499 10.53355438 61.14687897 11.50862122 61.14672852 C14.64693468 61.14742699 17.7851893 61.15521639 20.92349243 61.16304016 C23.09539762 61.16490457 25.26730323 61.16632837 27.43920898 61.16732788 C33.1635758 61.17115125 38.88791735 61.18098002 44.61227417 61.19203186 C50.45038511 61.20224984 56.28850013 61.20682633 62.12661743 61.21186829 C73.58756783 61.22260243 85.04849283 61.24019779 96.50942993 61.26069641 C96.50942993 53.67069641 96.50942993 46.08069641 96.50942993 38.26069641 C91.90602661 38.29211731 91.90602661 38.29211731 87.20962524 38.32417297 C77.07955063 38.39039744 66.94946655 38.43461366 56.81923294 38.4679451 C50.67613543 38.4888361 44.53325936 38.51718186 38.39028931 38.56245422 C32.46400521 38.60585724 26.53793435 38.62982212 20.6115036 38.64020538 C18.348413 38.64760667 16.08533431 38.66205931 13.82233429 38.68361664 C10.65690217 38.71257626 7.49235563 38.71665544 4.32681274 38.71479797 C2.91772141 38.73636963 2.91772141 38.73636963 1.48016357 38.75837708 C-4.85679131 38.71803548 -4.85679131 38.71803548 -8.04165649 36.41981506 C-11.43049149 31.36989561 -10.71168057 25.80193168 -10.74057007 19.94819641 C-10.76119507 18.91501282 -10.78182007 17.88182922 -10.80307007 16.81733704 C-10.83182409 11.21389673 -10.72156008 7.06797038 -7.49057007 2.26069641 C-4.8536711 -0.37620255 -3.67996874 0.00742096 0 0 Z " fill="#1086CF" transform="translate(419.4905700683594,79.73930358886719)"/>
<path d="M0 0 C1.22164856 -0.0087616 2.44329712 -0.01752319 3.70196533 -0.02655029 C7.0454193 -0.04476939 10.38732336 -0.04052531 13.73069 -0.02465487 C17.23307849 -0.01197523 20.73540181 -0.02374167 24.23779297 -0.03158569 C30.11893574 -0.04067634 35.99976433 -0.02871005 41.88085938 -0.00488281 C48.67541367 0.02232782 55.46921777 0.01351321 62.26375389 -0.01401484 C68.10259092 -0.03672193 73.94120242 -0.03989833 79.78006935 -0.02682149 C83.26510537 -0.01903558 86.74978902 -0.01796112 90.23480225 -0.03450394 C94.12037198 -0.05166055 98.00510483 -0.02786674 101.890625 0 C103.04298645 -0.01012115 104.1953479 -0.02024231 105.38262939 -0.03067017 C110.08949244 0.03194608 113.07465396 0.12385641 117.15829468 2.5774231 C119.68226259 6.91282731 119.64670944 10.46720656 119.59228516 15.40673828 C119.60104675 16.38454758 119.60980835 17.36235687 119.61883545 18.36979675 C119.64082019 21.59805839 119.62627927 24.82494738 119.609375 28.05322266 C119.61274338 30.29854597 119.61759618 32.5438675 119.62387085 34.78918457 C119.63124096 39.49342215 119.62053166 44.19718483 119.59716797 48.90136719 C119.56868076 54.9309901 119.5850839 60.95950025 119.61503029 66.98908234 C119.63309912 71.62510562 119.62734699 76.26086513 119.61439133 80.89689636 C119.6110562 83.12005241 119.61514809 85.34323241 119.62678909 87.56636047 C119.63949038 90.67395443 119.62012935 93.77974723 119.59228516 96.88720703 C119.60240631 97.80580002 119.61252747 98.72439301 119.62295532 99.67082214 C119.55014303 104.05778869 119.37160456 106.06386842 116.71737671 109.69445801 C112.63405877 112.57055953 108.84951101 112.77024778 103.94937134 112.78741455 C102.96815811 112.79312469 101.98694489 112.79883484 100.97599792 112.80471802 C99.91093521 112.80583588 98.8458725 112.80695374 97.74853516 112.80810547 C96.0525544 112.81555283 96.0525544 112.81555283 94.3223114 112.82315063 C90.58465973 112.83774731 86.84705048 112.84456954 83.109375 112.85009766 C80.51012165 112.85585041 77.91086832 112.86160813 75.31161499 112.86737061 C70.55870137 112.87653146 65.80580467 112.88283516 61.05288374 112.88586736 C54.06921617 112.89034804 47.08574433 112.90790243 40.10213625 112.93686795 C34.04142962 112.96112842 27.9808153 112.96881349 21.92005539 112.97054291 C19.34686593 112.9735689 16.77367729 112.98159561 14.20051956 112.99472809 C10.60048855 113.01179243 7.00093401 113.00990723 3.40087891 113.00341797 C1.80935753 113.01724014 1.80935753 113.01724014 0.1856842 113.03134155 C-5.65642582 112.9983725 -9.94063979 112.57442067 -15.0546875 109.64697266 C-17.10025403 106.57862286 -17.30696524 105.94567684 -17.32884216 102.48550415 C-17.33881729 101.6387764 -17.34879242 100.79204865 -17.35906982 99.91966248 C-17.3597345 98.99387894 -17.36039917 98.0680954 -17.36108398 97.11425781 C-17.3694075 96.13674057 -17.37773102 95.15922333 -17.38630676 94.15208435 C-17.41044687 90.91336104 -17.4191837 87.67483895 -17.42578125 84.43603516 C-17.43474431 82.18785541 -17.44386609 79.93967629 -17.45314026 77.6914978 C-17.46964357 72.97546945 -17.47733286 68.25951221 -17.48022461 63.54345703 C-17.48561065 57.49818176 -17.52329478 51.45357399 -17.56896877 45.40848732 C-17.5986996 40.763942 -17.6059473 36.11955821 -17.60695076 31.47492599 C-17.61116071 29.24615801 -17.62362586 27.01738987 -17.64446831 24.78871536 C-17.67130019 21.67146866 -17.66658115 18.55577947 -17.65405273 15.43847656 C-17.66888702 14.51674149 -17.68372131 13.59500641 -17.69900513 12.64533997 C-17.65197924 8.53997312 -17.36189454 6.17588197 -15.27064514 2.57543945 C-10.31355264 -0.3971085 -5.67892056 -0.04987778 0 0 Z M23.9453125 38.64697266 C23.9453125 50.19697266 23.9453125 61.74697266 23.9453125 73.64697266 C41.7653125 73.64697266 59.5853125 73.64697266 77.9453125 73.64697266 C77.9453125 62.09697266 77.9453125 50.54697266 77.9453125 38.64697266 C60.1253125 38.64697266 42.3053125 38.64697266 23.9453125 38.64697266 Z " fill="#17A7F0" transform="translate(233.0546875,212.35302734375)"/>
<path d="M0 0 C1.00659668 -0.00997513 2.01319336 -0.01995026 3.05029297 -0.03022766 C4.15374054 -0.03089233 5.25718811 -0.03155701 6.39407349 -0.03224182 C7.55690857 -0.04056534 8.71974365 -0.04888885 9.91781616 -0.0574646 C13.7733797 -0.0816196 17.62877427 -0.09034334 21.48440552 -0.09693909 C23.48296621 -0.10363675 25.48152692 -0.11033655 27.48008645 -0.117374 C33.76620106 -0.13884895 40.05226167 -0.14818048 46.33840942 -0.15138245 C52.82045147 -0.15501766 59.30201999 -0.18491102 65.78391731 -0.22678703 C71.35090534 -0.26149004 76.91773646 -0.27693088 82.48483193 -0.27762848 C85.80903195 -0.27842134 89.13264031 -0.2895284 92.45675278 -0.31562614 C96.16544791 -0.34242593 99.87283157 -0.33774768 103.58157349 -0.32521057 C104.6809726 -0.34004486 105.7803717 -0.35487915 106.91308594 -0.37016296 C114.34760206 -0.29845249 114.34760206 -0.29845249 118.2756958 2.62411499 C120.96040392 6.48754002 121.24416113 9.26624069 121.25765991 13.85806274 C121.26337006 15.02019287 121.2690802 16.182323 121.27496338 17.37966919 C121.27664017 19.29426689 121.27664017 19.29426689 121.27835083 21.24754333 C121.2829799 22.60444778 121.28800468 23.96135093 121.293396 25.31825256 C121.30651626 29.00651048 121.3129646 32.69475019 121.31740665 36.38302779 C121.32033889 38.68888007 121.32444406 40.99472739 121.32891083 43.30057716 C121.34258678 50.51939756 121.35225211 57.7382066 121.35611272 64.95703906 C121.36058934 73.28152515 121.37811831 81.6058467 121.40711331 89.93028277 C121.42876052 96.36948423 121.43881867 102.8086395 121.44015384 109.24787694 C121.44119999 113.09124122 121.44706685 116.93445085 121.46497345 120.77777672 C121.48150611 124.39672391 121.48358467 128.01540111 121.47483444 131.63437271 C121.4737023 133.58660095 121.4873808 135.53882044 121.50158691 137.49099731 C121.43308791 151.95828477 121.43308791 151.95828477 116.11721802 157.27415466 C110.92953513 159.06675713 105.15628495 158.49948921 99.74221802 158.52415466 C98.61815552 158.54477966 97.49409302 158.56540466 96.33596802 158.58665466 C85.81493394 158.63639951 85.81493394 158.63639951 81.11721802 155.27415466 C78.97484459 152.06059451 78.85556551 151.14368402 78.79837036 147.43553162 C78.77850067 146.45474136 78.75863098 145.47395111 78.73815918 144.46343994 C78.72660797 143.40710861 78.71505676 142.35077728 78.70315552 141.26243591 C78.68378937 140.17907455 78.66442322 139.0957132 78.64447021 137.97952271 C78.58463457 134.51531374 78.53827272 131.05107162 78.49221802 127.58665466 C78.45404194 125.23963487 78.41499044 122.89262914 78.37503052 120.54563904 C78.27892978 114.78860232 78.19389389 109.03148107 78.11721802 103.27415466 C76.68354889 103.2653553 76.68354889 103.2653553 75.22091675 103.25637817 C66.21571716 103.19917719 57.21075967 103.12642944 48.20580673 103.03843975 C43.57619719 102.99370289 38.94667632 102.95445414 34.31692505 102.92771912 C29.84934678 102.90171912 25.38210915 102.86134034 20.91474152 102.8109684 C19.20994553 102.79427727 17.50509059 102.78277699 15.8002243 102.77654076 C13.41301218 102.7669239 11.02667593 102.73889485 8.63967896 102.70652771 C7.93405319 102.7079628 7.22842743 102.70939789 6.50141907 102.71087646 C3.47046388 102.65271419 1.37989098 102.4202955 -1.29043579 100.93463135 C-5.43723362 96.61040766 -4.06714432 89.47163677 -4.07028198 83.89915466 C-4.08865112 82.19372498 -4.08865112 82.19372498 -4.10739136 80.45384216 C-4.10932495 79.35556091 -4.11125854 78.25727966 -4.11325073 77.12571716 C-4.11735962 76.1236322 -4.12146851 75.12154724 -4.1257019 74.08909607 C-3.85969014 71.00656778 -3.39455962 68.97812407 -1.88278198 66.27415466 C2.15163728 63.17718669 5.64884745 62.855908 10.5696106 62.93357849 C11.30185852 62.93314041 12.03410645 62.93270233 12.7885437 62.93225098 C15.19655496 62.93433249 17.6038604 62.95763257 20.01174927 62.98118591 C21.68611775 62.98678415 23.36049117 62.99105318 25.03486633 62.99404907 C29.43261382 63.00547992 33.83006205 63.03493181 38.22769165 63.06816101 C42.71882072 63.09889993 47.20999835 63.11256256 51.70120239 63.12767029 C60.50669328 63.15980339 69.31188389 63.21255681 78.11721802 63.27415466 C78.44721802 55.35415466 78.77721802 47.43415466 79.11721802 39.27415466 C75.38501953 39.30557556 75.38501953 39.30557556 71.5774231 39.33763123 C63.35525494 39.40391987 55.13307496 39.44809752 46.91071033 39.48140335 C41.92561009 39.50227517 36.9407837 39.53058553 31.95584106 39.57591248 C27.14477027 39.61938451 22.33396285 39.64329482 17.5227108 39.65366364 C15.68747499 39.66105256 13.85225354 39.67548146 12.0171299 39.69707489 C9.44576534 39.72612723 6.87548796 39.73010995 4.3039856 39.72825623 C3.16678322 39.74982788 3.16678322 39.74982788 2.00660706 39.77183533 C-2.92192294 39.73340871 -5.41885837 38.77774816 -8.88278198 35.27415466 C-11.88833642 30.76667379 -11.21239184 25.68700578 -11.19528198 20.46165466 C-11.21139526 19.48905701 -11.22750854 18.51645935 -11.24411011 17.51438904 C-11.24806798 11.66860763 -10.79932164 7.39005209 -7.88278198 2.27415466 C-4.64103795 0.11299197 -3.74369942 0.01988222 0 0 Z " fill="#1087CE" transform="translate(1189.8827819824219,94.72584533691406)"/>
<path d="M0 0 C0.92956512 -0.0071553 1.85913025 -0.01431061 2.81686401 -0.02168274 C3.84491653 -0.02437164 4.87296906 -0.02706055 5.93217468 -0.02983093 C7.00854187 -0.03640213 8.08490906 -0.04297333 9.19389343 -0.04974365 C12.77291422 -0.06953192 16.35189297 -0.08115122 19.93095398 -0.09111023 C21.14965872 -0.09518576 22.36836346 -0.09926128 23.62399864 -0.10346031 C30.07356473 -0.12434415 36.5231094 -0.13863613 42.97270203 -0.147995 C48.32241705 -0.15606104 53.67190796 -0.17719505 59.02153015 -0.20951843 C65.46769252 -0.24785262 71.91362725 -0.26674971 78.35989952 -0.27127647 C80.82114599 -0.27616011 83.28238847 -0.28782416 85.74357033 -0.30631447 C89.18431361 -0.33055799 92.62418536 -0.32976766 96.06498718 -0.32279968 C97.08696701 -0.33560974 98.10894684 -0.3484198 99.16189575 -0.36161804 C106.04596819 -0.31065803 106.04596819 -0.31065803 109.29440308 1.98904419 C112.75163206 7.325024 111.91505601 13.3912583 111.94267273 19.52217102 C111.96329773 20.65912415 111.98392273 21.79607727 112.00517273 22.96748352 C112.0129071 24.6149054 112.0129071 24.6149054 112.02079773 26.29560852 C112.03014343 27.29769348 112.03948914 28.29977844 112.04911804 29.33222961 C111.62266832 32.70001403 110.80012175 34.49017739 108.69267273 37.14717102 C104.6750368 39.22358634 101.27287348 39.39060868 96.7910614 39.3742218 C96.10651792 39.37446287 95.42197443 39.37470394 94.7166872 39.37495232 C92.51453686 39.37346696 90.31273077 39.35827042 88.11064148 39.34248352 C86.74561221 39.33954066 85.38058069 39.33750172 84.01554871 39.33638 C78.97038882 39.32592079 73.92527735 39.29799823 68.88017273 39.27217102 C57.59829773 39.23092102 46.31642273 39.18967102 34.69267273 39.14717102 C34.36267273 65.54717102 34.03267273 91.94717102 33.69267273 119.14717102 C58.52438929 118.98884994 58.52438929 118.98884994 83.35575867 118.78681946 C88.16191101 118.76875305 88.16191101 118.76875305 90.41294861 118.76539612 C91.98281896 118.75925968 93.55267062 118.74520325 95.12242126 118.72486877 C97.50261609 118.69558114 99.88166061 118.69154698 102.26200867 118.69306946 C102.95961178 118.67867702 103.65721489 118.66428459 104.37595749 118.64945602 C107.70776919 118.67797827 109.41777041 118.93647987 112.09458923 120.98805237 C115.82066546 126.02223281 114.91451988 132.0326521 114.94267273 138.02217102 C114.96329773 139.11142883 114.98392273 140.20068665 115.00517273 141.32295227 C115.0129071 142.90269836 115.0129071 142.90269836 115.02079773 144.51435852 C115.03014343 145.47454895 115.03948914 146.43473938 115.04911804 147.42402649 C114.62307263 150.6788967 113.62518122 152.51218946 111.69267273 155.14717102 C108.51604566 157.2649224 107.74240219 157.39874325 104.10687256 157.40786743 C103.16614395 157.41495224 102.22541534 157.42203705 101.25617981 157.42933655 C100.2259671 157.42685913 99.19575439 157.42438171 98.13432312 157.42182922 C96.5047039 157.42949562 96.5047039 157.42949562 94.84216309 157.43731689 C91.24149609 157.45124689 87.64101976 157.45025356 84.04032898 157.44795227 C81.54313078 157.45183728 79.04593324 157.45617154 76.54873657 157.4609375 C71.31064729 157.46840701 66.07260758 157.46824092 60.83451843 157.46284485 C54.78087197 157.45680448 48.72745789 157.46911709 42.67385107 157.49041492 C36.84913009 157.5101536 31.02450021 157.51320484 25.1997509 157.50967979 C22.72177523 157.51019409 20.24379592 157.51545206 17.76584053 157.52549171 C14.30384932 157.5377963 10.8423991 157.53110001 7.38041687 157.51948547 C6.35222839 157.52712921 5.32403992 157.53477295 4.26469421 157.54264832 C3.32114578 157.535634 2.37759735 157.52861969 1.40545654 157.52139282 C0.17794221 157.52164443 0.17794221 157.52164443 -1.07437038 157.52190113 C-3.88328511 157.05051499 -5.24578292 156.08763142 -7.30732727 154.14717102 C-8.37171516 150.95400735 -8.43835073 148.67154853 -8.44776917 145.31529236 C-8.45347931 144.09834183 -8.45918945 142.8813913 -8.46507263 141.62756348 C-8.46631796 140.27684031 -8.46744307 138.92611703 -8.46846008 137.57539368 C-8.47308881 136.15450919 -8.47811355 134.73362594 -8.48350525 133.31274414 C-8.49662507 129.45113945 -8.50307326 125.58955214 -8.50751591 121.72792864 C-8.51044701 119.31556368 -8.51455187 116.90320348 -8.51902008 114.49084091 C-8.53269325 106.94365607 -8.54236107 99.39648209 -8.54622197 91.84928572 C-8.55070392 83.13593944 -8.56825883 74.42274993 -8.59722257 65.70945132 C-8.61883262 58.97475793 -8.62892587 52.24010868 -8.63026309 45.50538099 C-8.63131151 41.48270414 -8.63722718 37.4601747 -8.6550827 33.43753433 C-8.67155201 29.65362397 -8.67372457 25.86997201 -8.6649437 22.08603859 C-8.66417273 20.69810482 -8.66852392 19.31015721 -8.67840195 17.92225838 C-8.69110629 16.02588675 -8.68345842 14.12941147 -8.67481995 12.23301697 C-8.67628651 11.17224253 -8.67775307 10.11146809 -8.67926407 9.01854897 C-7.916486 3.12984924 -5.769865 0.03035001 0 0 Z " fill="#1086CE" transform="translate(625.3073272705078,94.85282897949219)"/>
<path d="M0 0 C1.21042969 0.01345459 2.42085938 0.02690918 3.66796875 0.04077148 C4.31870361 0.04310287 4.96943848 0.04543427 5.63989258 0.0478363 C7.01168991 0.05755231 8.38344838 0.07929106 9.75488281 0.11230469 C11.84891482 0.1617106 13.94059398 0.17378637 16.03515625 0.17944336 C27.67368957 0.30217552 27.67368957 0.30217552 30.85546875 2.59936523 C32.61057733 5.49492897 33.10231182 7.6360431 33.08251953 11.00073242 C33.08236847 11.86132263 33.08221741 12.72191284 33.08206177 13.60858154 C33.0717392 14.52850891 33.06141663 15.44843628 33.05078125 16.39624023 C33.04795135 17.34501038 33.04512146 18.29378052 33.04220581 19.27130127 C33.03102323 22.29745163 33.00592205 25.32330453 32.98046875 28.34936523 C32.97043647 30.40274637 32.96131105 32.45613216 32.953125 34.50952148 C32.93109016 39.53958377 32.89657337 44.56942409 32.85546875 49.59936523 C39.29046875 49.10436523 39.29046875 49.10436523 45.85546875 48.59936523 C45.86481445 47.28742188 45.87416016 45.97547852 45.88378906 44.6237793 C45.92366536 39.75559552 45.98941788 34.88804528 46.06298828 30.02026367 C46.09121154 27.91357563 46.11241931 25.80678144 46.12646484 23.69995117 C46.14787536 20.67107744 46.19451635 17.64348192 46.24609375 14.61499023 C46.24732239 13.67318909 46.24855103 12.73138794 46.24981689 11.76104736 C46.39358599 5.34048696 46.39358599 5.34048696 48.4699707 2.00878906 C53.11896202 -0.73797451 58.43991185 -0.02599002 63.69995117 0.02294922 C65.78401753 0.03680572 67.86357922 0.00275335 69.94726562 -0.03540039 C71.26662109 -0.0334668 72.58597656 -0.0315332 73.9453125 -0.02954102 C75.75310181 -0.03062866 75.75310181 -0.03062866 77.59741211 -0.03173828 C81.74270668 0.77122811 83.20913078 2.38779591 85.85546875 5.59936523 C87.14180538 8.1720385 86.98716198 10.0116638 86.99591064 12.89338684 C87.00162079 14.01640701 87.00733093 15.13942719 87.01321411 16.29647827 C87.0148909 18.15340805 87.0148909 18.15340805 87.01660156 20.04785156 C87.02404892 21.99671013 87.02404892 21.99671013 87.03164673 23.98493958 C87.04477957 27.55529041 87.05121753 31.12562244 87.05565739 34.69599366 C87.05858702 36.92627037 87.06269164 39.15654191 87.06716156 41.38681602 C87.08083954 48.36376065 87.09050442 55.34069351 87.09436345 62.31765062 C87.09884348 70.37333665 87.11638743 78.42885294 87.14536405 86.48448735 C87.16697927 92.70961092 87.17706766 98.93468674 87.17840457 105.15984744 C87.17945283 108.87849522 87.18536469 112.59698352 87.20322418 116.31559181 C87.22276315 120.46473107 87.21841655 124.61351516 87.21191406 128.76269531 C87.22112885 129.99457581 87.23034363 131.2264563 87.23983765 132.4956665 C87.23426849 133.62714615 87.22869934 134.75862579 87.22296143 135.9243927 C87.22516127 137.39582592 87.22516127 137.39582592 87.22740555 138.89698505 C86.6414552 143.15432293 84.91242634 145.78053864 81.54516602 148.38916016 C78.42501529 149.7930439 76.2333766 149.97245186 72.8203125 149.96264648 C71.68142578 149.96200195 70.54253906 149.96135742 69.36914062 149.96069336 C67.59893555 149.93652344 67.59893555 149.93652344 65.79296875 149.91186523 C64.01696289 149.91669922 64.01696289 149.91669922 62.20507812 149.92163086 C52.25172081 149.8595986 52.25172081 149.8595986 48.85546875 147.59936523 C46.59767182 144.21266984 46.61060092 143.08245672 46.62841797 139.11816406 C46.62856903 137.99722855 46.62872009 136.87629303 46.62887573 135.72138977 C46.6391983 134.51194199 46.64952087 133.3024942 46.66015625 132.05639648 C46.66298615 130.81766281 46.66581604 129.57892914 46.66873169 128.30265808 C46.67803689 125.01298437 46.69600084 121.7235066 46.71813965 118.43389893 C46.73861605 115.07566729 46.74773723 111.71740696 46.7578125 108.35913086 C46.77988607 101.7724556 46.81442298 95.18594849 46.85546875 88.59936523 C42.23546875 88.59936523 37.61546875 88.59936523 32.85546875 88.59936523 C32.88165283 90.23929443 32.90783691 91.87922363 32.93481445 93.56884766 C33.02531838 99.65350703 33.08272017 105.73810692 33.13012695 111.82324219 C33.15527032 114.45680751 33.18938959 117.09030305 33.23266602 119.72363281 C33.29332085 123.50920832 33.32168145 127.29386121 33.34375 131.07983398 C33.36955643 132.25708542 33.39536285 133.43433685 33.42195129 134.64726257 C33.42475421 142.81700555 33.42475421 142.81700555 30.51245117 146.81933594 C24.89603103 150.58202263 19.01239019 149.81994216 12.48046875 149.84936523 C10.77503906 149.88030273 10.77503906 149.88030273 9.03515625 149.91186523 C7.936875 149.91702148 6.83859375 149.92217773 5.70703125 149.92749023 C4.70494629 149.93683594 3.70286133 149.94618164 2.67041016 149.95581055 C-0.64086513 149.53651636 -2.47139008 148.57172399 -5.14453125 146.59936523 C-7.40981396 143.20144117 -7.39870676 142.01967913 -7.41195679 138.03323364 C-7.42048676 136.87518219 -7.42901672 135.71713074 -7.43780518 134.52398682 C-7.4368988 133.25222595 -7.43599243 131.98046509 -7.43505859 130.67016602 C-7.4410425 129.31824369 -7.44784773 127.96632479 -7.45541382 126.6144104 C-7.47309573 122.94079753 -7.47777013 119.26727781 -7.47904539 115.5936265 C-7.48094402 112.52704218 -7.48830118 109.46047958 -7.49538958 106.39390361 C-7.51167966 99.15850594 -7.51655799 91.92315804 -7.51513672 84.68774414 C-7.51393528 77.22421906 -7.53503601 69.76098315 -7.56662405 62.29753125 C-7.59277745 55.88978849 -7.6035044 49.48214024 -7.6022259 43.07434452 C-7.60171596 39.24724535 -7.60741631 35.42040309 -7.628582 31.59335709 C-7.64794877 27.99321742 -7.64810009 24.3935801 -7.63354874 20.7934227 C-7.63046112 18.84419066 -7.64714828 16.89495867 -7.66442871 14.94580078 C-7.65603973 13.78210968 -7.64765076 12.61841858 -7.63900757 11.41946411 C-7.6400971 10.41031008 -7.64118664 9.40115604 -7.64230919 8.36142159 C-6.79328909 3.65040251 -4.72808535 0.9011995 0 0 Z " fill="#17A8F1" transform="translate(267.14453125,52.400634765625)"/>
<path d="M0 0 C1.22783203 -0.00386719 2.45566406 -0.00773437 3.72070312 -0.01171875 C5.00009766 -0.00011719 6.27949219 0.01148437 7.59765625 0.0234375 C8.87318359 0.01183594 10.14871094 0.00023438 11.46289062 -0.01171875 C12.69201172 -0.00785156 13.92113281 -0.00398438 15.1875 0 C16.30890381 0.00338379 17.43030762 0.00676758 18.58569336 0.01025391 C22.03757098 0.44609012 23.88976559 1.32407132 26.66015625 3.3984375 C29.17891095 7.17656954 28.94770085 10.16952364 28.93431091 14.54611206 C28.93954759 15.38635929 28.94478427 16.22660652 28.95017964 17.09231579 C28.96522549 19.91819959 28.96588579 22.74390306 28.96655273 25.56982422 C28.97417111 27.59168811 28.98259805 29.61354908 28.99177551 31.63540649 C29.01375851 37.13539471 29.02252447 42.63532733 29.02760196 48.13535452 C29.0312409 51.5695331 29.03747852 55.00369702 29.04460335 58.43787003 C29.06911058 70.41285088 29.0821526 82.38778832 29.08569336 94.36279297 C29.08933012 105.53446379 29.11923241 116.70586012 29.16109794 127.87744701 C29.19575783 137.46138005 29.21124105 147.04522194 29.21193939 156.62921727 C29.21273365 162.35663384 29.22154037 168.08377094 29.24993706 173.81112289 C29.27604405 179.1972687 29.27836404 184.58290188 29.26228142 189.96908188 C29.26046108 191.94721592 29.2672101 193.92537895 29.28310013 195.90345001 C29.30345701 198.60184379 29.29307077 201.29842638 29.27488708 203.99679565 C29.28808705 204.78172044 29.30128702 205.56664522 29.31488699 206.3753556 C29.25256221 210.41768213 28.83473399 212.18413401 26.24673557 215.36104012 C20.69548384 219.73365133 14.6893017 218.65990583 7.84765625 218.7109375 C6.56310547 218.73994141 5.27855469 218.76894531 3.95507812 218.79882812 C2.09786133 218.81139648 2.09786133 218.81139648 0.203125 218.82421875 C-1.49807495 218.84609253 -1.49807495 218.84609253 -3.23364258 218.8684082 C-7.07823262 218.28671868 -8.6489972 217.1740678 -11.33984375 214.3984375 C-13.82934091 209.80650233 -13.60980658 205.37616509 -13.56689453 200.29370117 C-13.56718658 199.38588898 -13.56747864 198.47807678 -13.56777954 197.54275513 C-13.56638933 194.55054066 -13.55084258 191.55857707 -13.53515625 188.56640625 C-13.53142502 186.48847083 -13.52857857 184.41053364 -13.52658081 182.33259583 C-13.518953 176.86963016 -13.49931175 171.40677122 -13.47717285 165.94384766 C-13.45669611 160.36687667 -13.44757518 154.78988839 -13.4375 149.21289062 C-13.41606512 138.27469275 -13.38193939 127.33657401 -13.33984375 116.3984375 C-14.4292627 116.40891113 -15.51868164 116.41938477 -16.64111328 116.43017578 C-20.70016162 116.46649773 -24.7591957 116.48938223 -28.81835938 116.50830078 C-30.57196472 116.51833063 -32.32555345 116.53195779 -34.07910156 116.54931641 C-36.6061616 116.5736978 -39.13299965 116.5849509 -41.66015625 116.59375 C-42.82769943 116.60923386 -42.82769943 116.60923386 -44.01882935 116.62503052 C-49.90829253 116.62623227 -54.34086507 115.73108995 -59.33984375 112.3984375 C-60.84609188 107.24427873 -60.56170505 101.84868614 -60.58984375 96.5234375 C-60.61046875 95.55535156 -60.63109375 94.58726562 -60.65234375 93.58984375 C-60.68414493 87.74637657 -60.2204826 83.53044944 -57.33984375 78.3984375 C-55.05352881 77.25528003 -53.79636969 77.27731018 -51.25732422 77.28491211 C-49.99624344 77.28502541 -49.99624344 77.28502541 -48.70968628 77.28514099 C-47.34712204 77.29288292 -47.34712204 77.29288292 -45.95703125 77.30078125 C-45.02762726 77.3021962 -44.09822327 77.30361115 -43.14065552 77.30506897 C-40.16535251 77.31067697 -37.19012411 77.32323082 -34.21484375 77.3359375 C-32.20052192 77.34095147 -30.18619891 77.34551455 -28.171875 77.34960938 C-23.22783573 77.360649 -18.2838524 77.37791901 -13.33984375 77.3984375 C-13.34650558 76.55985199 -13.35316742 75.72126648 -13.36003113 74.85726929 C-13.42022303 66.94188377 -13.46585917 59.02657548 -13.49528027 51.11101341 C-13.51091462 47.04184555 -13.53211184 42.97286733 -13.56616211 38.90380859 C-13.59883558 34.97454599 -13.61671354 31.04546543 -13.62447548 27.11607742 C-13.6300047 25.61940268 -13.64080199 24.12273753 -13.65703392 22.62614059 C-13.67891518 20.52446973 -13.68180633 18.42354438 -13.68041992 16.32177734 C-13.68708176 15.12708832 -13.69374359 13.93239929 -13.7006073 12.70150757 C-13.2071055 8.1831159 -11.71610075 4.8199007 -8.54858398 1.54833984 C-5.59075192 0.00844938 -3.32807136 0.01005243 0 0 Z " fill="#1086CF" transform="translate(791.33984375,73.6015625)"/>
<path d="M0 0 C0.88045486 -0.0071553 1.76090973 -0.01431061 2.66804504 -0.02168274 C3.63639786 -0.02437164 4.60475067 -0.02706055 5.60244751 -0.02983093 C6.6204393 -0.03640213 7.63843109 -0.04297333 8.68727112 -0.04974365 C12.06606107 -0.06950312 15.44480655 -0.08114405 18.82363892 -0.09111023 C20.55102736 -0.09722352 20.55102736 -0.09722352 22.31331253 -0.10346031 C28.40627108 -0.12433055 34.49920702 -0.13862918 40.5921936 -0.147995 C46.89642124 -0.15907234 53.20029716 -0.19348511 59.50440025 -0.23316669 C64.34275994 -0.2592645 69.18103488 -0.26768067 74.01945877 -0.27127647 C76.34394333 -0.27615871 78.66842371 -0.28781886 80.99283981 -0.30631447 C84.24190214 -0.33056414 87.49004186 -0.32976679 90.73916626 -0.32279968 C91.70347061 -0.33560974 92.66777496 -0.3484198 93.66130066 -0.36161804 C100.18343794 -0.31050777 100.18343794 -0.31050777 103.36651611 2.05154419 C105.53131226 5.21584034 105.92728482 6.95288758 105.94064331 10.75111389 C105.94635345 11.72123413 105.9520636 12.69135437 105.95794678 13.69087219 C105.95962357 15.29297546 105.95962357 15.29297546 105.96133423 16.92744446 C105.96878159 18.61054718 105.96878159 18.61054718 105.97637939 20.32765198 C105.99103011 24.05395615 105.99780829 27.78021773 106.00332642 31.50654602 C106.00907599 34.09006248 106.01483375 36.67357892 106.02059937 39.25709534 C106.02977229 43.98714763 106.03606887 48.71718284 106.03909612 53.4472425 C106.04357321 60.4043504 106.06110325 67.36126148 106.09009671 74.31830955 C106.11434493 80.34644342 106.12204181 86.37448442 106.12377167 92.40267181 C106.12680061 94.96552348 106.13483719 97.52837427 106.14795685 100.09119415 C106.16500293 103.67738761 106.16314014 107.26310198 106.15664673 110.84931946 C106.16586151 111.90929138 106.17507629 112.96926331 106.18457031 114.06135559 C106.15383101 119.47825462 105.9785627 123.53031671 102.80020142 128.14717102 C98.07378673 131.29811414 93.02083843 130.51912529 87.45840454 130.51777649 C85.43866142 130.52214193 83.42111932 130.55844678 81.40176392 130.59638977 C80.12301392 130.60025696 78.84426392 130.60412415 77.52676392 130.60810852 C75.77226929 130.62043518 75.77226929 130.62043518 73.98233032 130.63301086 C70.1420958 130.04669303 68.54969867 128.83942514 65.80020142 126.14717102 C63.34733845 122.46787657 63.56791263 120.67339195 63.60488892 116.29170227 C63.60771881 115.63006577 63.61054871 114.96842926 63.61346436 114.28674316 C63.62464223 112.17753365 63.64974161 110.06875177 63.67520142 107.95967102 C63.68523435 106.52803654 63.69435965 105.09639538 63.70254517 103.66474915 C63.72457346 100.15875125 63.75908656 96.65300289 63.80020142 93.14717102 C63.04487122 93.15161224 62.28954102 93.15605347 61.51132202 93.16062927 C54.38996189 93.20071813 47.26865654 93.23116156 40.14721298 93.25079536 C36.4860833 93.26122865 32.82504693 93.27537946 29.16397095 93.29804993 C25.63024225 93.31979466 22.09660325 93.33174307 18.56281281 93.33692551 C16.55977925 93.34241446 14.55678173 93.35802483 12.55380249 93.37376404 C11.33283875 93.3739151 10.111875 93.37406616 8.85391235 93.3742218 C7.24174835 93.38088364 7.24174835 93.38088364 5.59701538 93.38768005 C2.74828406 93.14270644 1.15915025 92.73179739 -1.19979858 91.14717102 C-4.56484363 86.09960345 -3.56886471 80.20011103 -3.57479858 74.27217102 C-3.59929077 72.99213196 -3.62378296 71.7120929 -3.64901733 70.39326477 C-3.65288452 69.15963196 -3.65675171 67.92599915 -3.66073608 66.65498352 C-3.66895386 65.52721497 -3.67717163 64.39944641 -3.68563843 63.23750305 C-3.09580168 59.48566708 -1.82082186 57.84267947 0.80020142 55.14717102 C3.5030945 53.79572448 5.60089948 54.02741937 8.62686157 54.03364563 C9.84797638 54.03372116 11.06909119 54.03379669 12.32720947 54.03387451 C13.66456136 54.0389815 15.00191284 54.0441975 16.33926392 54.04951477 C17.70404 54.05137962 19.06881676 54.05280321 20.43359375 54.05380249 C24.02735235 54.05762239 27.62107059 54.06744819 31.21481323 54.07850647 C34.88129124 54.08873191 38.54777576 54.09330254 42.21426392 54.0983429 C49.40959695 54.10907092 56.60488839 54.12666346 63.80020142 54.14717102 C63.80020142 49.19717102 63.80020142 44.24717102 63.80020142 39.14717102 C61.79675659 39.16811829 59.79331177 39.18906555 57.72915649 39.21064758 C51.1035629 39.27698023 44.47795448 39.3211313 37.85211658 39.35441971 C33.83552777 39.37527855 29.81927969 39.40356434 25.80288696 39.44892883 C21.92548469 39.49244848 18.04840978 39.51632094 14.17078209 39.52667999 C12.69279516 39.53406049 11.21482578 39.54847316 9.73697853 39.57009125 C7.66366751 39.59920863 5.59170218 39.60312385 3.51821899 39.60127258 C1.74950188 39.61459625 1.74950188 39.61459625 -0.0549469 39.62818909 C-3.84663222 39.04823514 -5.48576974 37.80292572 -8.19979858 35.14717102 C-10.41452933 30.71770952 -9.42970998 24.69862492 -9.44979858 19.83467102 C-9.47042358 18.59781555 -9.49104858 17.36096008 -9.51229858 16.08662415 C-9.51745483 14.8935968 -9.52261108 13.70056946 -9.52792358 12.47138977 C-9.53726929 11.379151 -9.54661499 10.28691223 -9.5562439 9.16157532 C-9.1534219 5.7549704 -8.22864577 3.88759654 -6.19979858 1.14717102 C-3.89235791 -0.00654932 -2.56775364 0.01430173 0 0 Z " fill="#17A8F1" transform="translate(139.19979858398438,63.85282897949219)"/>
<path d="M0 0 C1.22396484 -0.020625 2.44792969 -0.04125 3.70898438 -0.0625 C5.48692383 -0.07023437 5.48692383 -0.07023437 7.30078125 -0.078125 C8.38141846 -0.0874707 9.46205566 -0.09681641 10.57543945 -0.10644531 C14.23703113 0.31294151 16.58079347 1.27884827 19.6875 3.25 C22.17874277 6.81640517 21.92899915 10.24925122 21.91455078 14.49707031 C21.91484283 15.21941864 21.91513489 15.94176697 21.91543579 16.68600464 C21.91404562 19.06683483 21.89849934 21.44734967 21.8828125 23.828125 C21.87908125 25.48150461 21.87623481 27.13488643 21.87423706 28.78826904 C21.86660938 33.13499074 21.84696833 37.48157829 21.8248291 41.82824707 C21.80435204 46.26568792 21.79523136 50.7031505 21.78515625 55.140625 C21.76372161 63.84381149 21.72959612 72.54688904 21.6875 81.25 C22.98945312 81.20359375 24.29140625 81.1571875 25.6328125 81.109375 C27.35935196 81.07184153 29.08591636 81.03544307 30.8125 81 C31.6684375 80.96648437 32.524375 80.93296875 33.40625 80.8984375 C38.9724705 80.81280334 42.39134005 81.32443532 46.6875 85.25 C48.80181517 89.91749552 47.87201943 96.15331631 47.875 101.1875 C47.88724609 102.27224609 47.89949219 103.35699219 47.91210938 104.47460938 C47.91404297 105.52326172 47.91597656 106.57191406 47.91796875 107.65234375 C47.92207764 108.60616943 47.92618652 109.55999512 47.93041992 110.54272461 C47.66186091 113.53574058 47.12262647 115.60745039 45.6875 118.25 C42.70448392 120.14436217 40.41998877 120.49016011 36.921875 120.4453125 C36.03242187 120.43886719 35.14296875 120.43242187 34.2265625 120.42578125 C32.84597656 120.40064453 32.84597656 120.40064453 31.4375 120.375 C30.03371094 120.36146484 30.03371094 120.36146484 28.6015625 120.34765625 C26.29661343 120.32413636 23.9921884 120.29126853 21.6875 120.25 C21.70415459 121.94009689 21.70415459 121.94009689 21.72114563 123.66433716 C21.82254411 134.28743509 21.89747634 144.91043471 21.94656086 155.53390694 C21.97264429 160.99546619 22.00802006 166.45663449 22.06469727 171.91796875 C22.11906085 177.18940951 22.14892997 182.46047445 22.16188622 187.73217392 C22.17111822 189.74243969 22.18914642 191.75268509 22.21615028 193.76279068 C22.25249822 196.58075506 22.25744293 199.3971706 22.25512695 202.21533203 C22.27310333 203.04467758 22.29107971 203.87402313 22.30960083 204.72850037 C22.27308607 208.84006206 21.93466566 211.47140373 19.33952332 214.75216675 C13.93932307 219.83839644 6.83486714 218.50977953 -0.1875 218.5625 C-1.46753906 218.59150391 -2.74757813 218.62050781 -4.06640625 218.65039062 C-5.30003906 218.65876953 -6.53367187 218.66714844 -7.8046875 218.67578125 C-8.93245605 218.69036377 -10.06022461 218.70494629 -11.22216797 218.7199707 C-15.00324458 218.14495313 -16.63422693 216.93464269 -19.3125 214.25 C-20.55435439 210.52443684 -20.46058714 207.06548988 -20.45967102 203.1849823 C-20.46334771 202.35360774 -20.4670244 201.52223318 -20.4708125 200.66566545 C-20.48185739 197.86979616 -20.48569452 195.07396402 -20.48950195 192.27807617 C-20.49576592 190.27754091 -20.50241266 188.27700681 -20.50941467 186.276474 C-20.52682874 180.83427763 -20.53737723 175.39209006 -20.5456202 169.94987273 C-20.55076878 166.5512036 -20.55684453 163.15253721 -20.56313133 159.75387001 C-20.58218329 149.12427278 -20.59641525 138.4946825 -20.6047433 127.86507148 C-20.61452119 115.58714017 -20.64085518 103.30938888 -20.68124419 91.03152102 C-20.71137879 81.54609338 -20.72620959 72.06071742 -20.72952431 62.57524282 C-20.73187753 56.90763162 -20.74087355 51.24021275 -20.76598549 45.57265282 C-20.78922512 40.24156133 -20.79351593 34.91078938 -20.78322411 29.57966042 C-20.78272766 27.62291019 -20.78908 25.66614446 -20.80278015 23.70944214 C-20.82043903 21.03789966 -20.81342274 18.36751139 -20.80024719 15.69596863 C-20.81121644 14.92173858 -20.82218568 14.14750854 -20.83348733 13.34981698 C-20.77207542 8.19183279 -19.65410605 5.17659376 -16.3125 1.25 C-11.06544645 -0.49901785 -5.49186732 0.02291859 0 0 Z " fill="#1086CE" transform="translate(1359.3125,73.75)"/>
<path d="M0 0 C1.92682617 -0.0309375 1.92682617 -0.0309375 3.89257812 -0.0625 C5.13072266 -0.06765625 6.36886719 -0.0728125 7.64453125 -0.078125 C8.77866455 -0.0874707 9.91279785 -0.09681641 11.08129883 -0.10644531 C14.65809302 0.30400187 16.39845489 0.98003464 19.1875 3.25 C21.97339078 7.82161735 22.55605584 11.22438961 22.52807617 16.54052734 C22.52873329 17.5952272 22.52873329 17.5952272 22.52940369 18.67123413 C22.52732728 20.97642583 22.50405188 23.28087415 22.48046875 25.5859375 C22.47486868 27.19161583 22.47060052 28.79729931 22.46760559 30.40298462 C22.4561891 34.61495284 22.42674979 38.8266073 22.39349365 43.03845215 C22.36272357 47.34199785 22.34908547 51.64559459 22.33398438 55.94921875 C22.3018767 64.38295597 22.25071945 72.81643888 22.1875 81.25 C23.48945312 81.19199219 24.79140625 81.13398438 26.1328125 81.07421875 C27.85933901 81.02730227 29.58590448 80.98180414 31.3125 80.9375 C32.1684375 80.89560547 33.024375 80.85371094 33.90625 80.81054688 C38.11627904 80.72958478 41.2821249 80.80652758 44.75708008 83.35351562 C47.6713392 86.82662163 47.94765706 88.4210685 47.94921875 92.90625 C47.95244141 94.17597656 47.95566406 95.44570312 47.95898438 96.75390625 C47.93126953 98.07261719 47.90355469 99.39132813 47.875 100.75 C47.88982422 102.06871094 47.90464844 103.38742188 47.91992188 104.74609375 C47.83719228 114.33299396 47.83719228 114.33299396 45.29060364 117.92736816 C40.85337623 121.24857392 37.25694677 120.80972724 31.875 120.5625 C30.94365234 120.53994141 30.01230469 120.51738281 29.05273438 120.49414062 C26.7626604 120.43542078 24.47592125 120.35336858 22.1875 120.25 C22.19638245 121.36420319 22.20526489 122.47840637 22.2144165 123.62637329 C22.2955382 134.13177449 22.35548271 144.63711205 22.39474869 155.14275551 C22.41561448 160.54370818 22.44391407 165.9444078 22.48925781 171.34521484 C22.53275098 176.55828714 22.55664469 181.77111618 22.56700897 186.98435593 C22.57439407 188.97227177 22.58881549 190.96017445 22.61042023 192.9479866 C22.63950018 195.73465898 22.64345406 198.52032897 22.64160156 201.30712891 C22.66317322 202.53712112 22.66317322 202.53712112 22.68518066 203.79196167 C22.64722818 209.07569779 21.66620127 212.04153273 18.1875 216.25 C13.25181025 219.84496372 6.12920905 218.66103368 0.3125 218.6875 C-0.95464844 218.72037109 -2.22179688 218.75324219 -3.52734375 218.78710938 C-4.75324219 218.79419922 -5.97914062 218.80128906 -7.2421875 218.80859375 C-8.35835449 218.82204834 -9.47452148 218.83550293 -10.62451172 218.84936523 C-14.66386985 218.08993621 -17.28832909 216.44344845 -19.8125 213.25 C-20.41289242 210.16377992 -20.61832637 207.86071668 -20.5609436 204.77915955 C-20.56889242 203.92833079 -20.57684123 203.07750204 -20.58503091 202.2008906 C-20.60427681 199.35061305 -20.58064668 196.50232133 -20.55712891 193.65209961 C-20.56198492 191.60860961 -20.56942375 189.56512435 -20.57925415 187.52165222 C-20.59807648 181.97201652 -20.57921919 176.423086 -20.55258989 170.87350535 C-20.52997226 165.06976754 -20.53817494 159.26606474 -20.54208374 153.46229553 C-20.54384992 143.71652694 -20.52168176 133.97103651 -20.48486328 124.2253418 C-20.44251547 112.95136747 -20.43551051 101.67780052 -20.4479872 90.40376276 C-20.45936851 79.56534495 -20.44809109 68.72707087 -20.42564011 57.88867378 C-20.41634135 53.27270416 -20.41460331 48.65682233 -20.4188118 44.04084587 C-20.42257361 38.60788172 -20.40640119 33.1753334 -20.37469101 27.74246407 C-20.36619184 25.74619899 -20.36451327 23.74989177 -20.37007141 21.75361633 C-20.37649763 19.03323721 -20.35839966 16.31410742 -20.33389282 13.59385681 C-20.34145147 12.79960153 -20.34901012 12.00534625 -20.35679781 11.18702263 C-20.29983241 7.62471747 -20.12088914 5.6475316 -17.90491295 2.79100895 C-12.60416657 -1.11285601 -6.36020153 0.02530165 0 0 Z " fill="#1086CF" transform="translate(1111.8125,73.75)"/>
<path d="M0 0 C2.22928589 0.00632146 4.45325558 -0.04059639 6.68188477 -0.09130859 C8.10570623 -0.0958554 9.52954189 -0.09726118 10.95336914 -0.09521484 C12.24235107 -0.10117676 13.53133301 -0.10713867 14.859375 -0.11328125 C19.66195438 0.92579565 20.63294847 2.56620806 23.30102539 6.63134766 C24.80306098 10.21270392 24.4305253 14.11331391 24.43383789 17.95166016 C24.43479462 18.65153046 24.43575134 19.35140076 24.43673706 20.07247925 C24.43741567 21.54669281 24.43558366 23.02090941 24.43139648 24.49511719 C24.42602755 26.75543885 24.43136046 29.01556327 24.43774414 31.27587891 C24.43708362 32.7094731 24.43580299 34.14306716 24.43383789 35.57666016 C24.43270996 36.88135254 24.43158203 38.18604492 24.43041992 39.53027344 C24.30102539 42.63134766 24.30102539 42.63134766 23.30102539 44.63134766 C24.34006012 44.62246521 25.37909485 44.61358276 26.44961548 44.60443115 C36.24863723 44.52329213 46.04759068 44.46335669 55.84687233 44.42409897 C60.88462975 44.4032375 65.92211564 44.37494603 70.9597168 44.32958984 C75.82266275 44.28608091 80.68534777 44.26219971 85.54847336 44.25183868 C87.40241986 44.24445639 89.25635232 44.23004038 91.11018753 44.20842743 C93.71008242 44.17932611 96.3089036 44.17539442 98.90893555 44.17724609 C100.05477112 44.15567444 100.05477112 44.15567444 101.22375488 44.13366699 C106.38846589 44.17338379 109.33236563 45.35286677 113.30102539 48.63134766 C115.58251278 53.19432244 114.62122456 59.43455325 114.67602539 64.44384766 C114.7134082 65.72839844 114.75079102 67.01294922 114.78930664 68.33642578 C114.8009082 69.57457031 114.81250977 70.81271484 114.82446289 72.08837891 C114.84428223 73.22251221 114.86410156 74.35664551 114.88452148 75.52514648 C114.11444793 79.62457986 112.52942274 81.07270498 109.30102539 83.63134766 C105.64154821 84.96440239 101.92875449 84.76301236 98.07157898 84.77178955 C97.34214437 84.77476067 96.61270976 84.7777318 95.86117107 84.78079295 C93.41622481 84.7894666 90.9713276 84.79098707 88.52636719 84.79248047 C86.77360937 84.79710956 85.02085256 84.80213435 83.26809692 84.80752563 C78.50561935 84.82064228 73.74315587 84.82709309 68.98066306 84.83153629 C66.0049424 84.83446803 63.02922558 84.83857302 60.05350685 84.84304047 C50.7421968 84.85671307 41.43089555 84.86638105 32.11957616 84.87024236 C21.37268454 84.87472355 10.62592008 84.89227528 -0.12093288 84.92124295 C-8.42933707 84.94286026 -16.73770549 84.95294666 -25.04613751 84.95428348 C-30.00782643 84.95533141 -34.96939577 84.96123685 -39.93105507 84.97910309 C-44.59894561 84.99558473 -49.2666267 84.99773881 -53.93453598 84.98896408 C-55.64575321 84.98819377 -57.35698171 84.99253559 -59.06817055 85.00242233 C-61.40855469 85.01514917 -63.7481978 85.00926149 -66.08857727 84.99884033 C-68.05111686 85.00104017 -68.05111686 85.00104017 -70.05330372 85.00328445 C-74.32288042 84.56769585 -76.91613624 83.63069802 -80.69897461 81.63134766 C-83.99642105 76.685178 -83.02657481 71.06690661 -83.01147461 65.25634766 C-83.02758789 64.02400391 -83.04370117 62.79166016 -83.06030273 61.52197266 C-83.06094727 60.33345703 -83.0615918 59.14494141 -83.06225586 57.92041016 C-83.06523682 56.83453613 -83.06821777 55.74866211 -83.07128906 54.62988281 C-82.64426705 51.19074553 -81.81306832 49.36308542 -79.69897461 46.63134766 C-76.42106905 44.51970291 -73.77398348 44.38754327 -69.9206543 44.40429688 C-68.17930206 44.40452347 -68.17930206 44.40452347 -66.402771 44.40475464 C-65.15473694 44.41507721 -63.90670288 44.42539978 -62.62084961 44.43603516 C-60.69828339 44.44028 -60.69828339 44.44028 -58.73687744 44.4446106 C-55.33707822 44.45222978 -51.93745115 44.47186332 -48.53771973 44.49401855 C-45.06545337 44.51451408 -41.59315908 44.52362022 -38.12084961 44.53369141 C-31.31348744 44.55511099 -24.5062393 44.58922609 -17.69897461 44.63134766 C-17.73039551 42.84519043 -17.73039551 42.84519043 -17.76245117 41.02294922 C-17.83488423 36.60249876 -17.88078633 32.1821007 -17.91870117 27.76123047 C-17.93880913 25.8483803 -17.96609968 23.93559154 -18.00073242 22.02294922 C-18.0492871 19.27246954 -18.07195119 16.52280289 -18.08959961 13.77197266 C-18.11024475 12.91766663 -18.13088989 12.0633606 -18.15216064 11.1831665 C-18.15355552 7.48721861 -18.10378201 5.28318493 -16.12548828 2.09765625 C-11.3128161 -0.81057487 -5.47243364 -0.03254889 0 0 Z " fill="#1086CE" transform="translate(468.698974609375,201.36865234375)"/>
<path d="M0 0 C2.25663956 -0.017217 4.51181503 -0.06110521 6.76806641 -0.10522461 C8.20425356 -0.11535158 9.64045315 -0.12386768 11.07666016 -0.13061523 C13.03708252 -0.15248901 13.03708252 -0.15248901 15.03710938 -0.17480469 C18.39697266 0.29516602 18.39697266 0.29516602 20.79199219 2.13427734 C23.85463668 6.25771307 23.54295315 10.32684271 23.53741455 15.23956299 C23.54038567 16.05798133 23.5433568 16.87639966 23.54641795 17.71961856 C23.55511397 20.47169933 23.55661397 23.22373664 23.55810547 25.97583008 C23.56273303 27.94518629 23.5677576 29.91454161 23.57315063 31.88389587 C23.58628321 37.24145505 23.59272135 42.59900168 23.59716129 47.95657444 C23.60009083 51.3029885 23.60419542 54.64939913 23.60866547 57.99581146 C23.62234307 68.46363028 23.63200826 78.93144125 23.63586736 89.39926839 C23.64034796 101.48698597 23.65789489 113.57459046 23.68686795 125.66227365 C23.70847917 135.00249598 23.71857135 144.34268649 23.71990848 153.68293357 C23.72095696 159.26279021 23.7268741 164.84254057 23.74472809 170.42237091 C23.76119887 175.67217124 23.76336904 180.9217853 23.75458908 186.17160225 C23.75381816 188.09728812 23.75816867 190.02298396 23.76804733 191.94864464 C23.78075456 194.58026302 23.77489671 197.21122052 23.76446533 199.84283447 C23.77252174 200.60247883 23.78057814 201.36212319 23.78887868 202.14478707 C23.74186969 207.22565729 22.74759059 210.77029122 20.39697266 215.29516602 C15.76356094 218.93709155 8.53719745 217.62225975 2.95947266 217.60766602 C1.73164062 217.6237793 0.50380859 217.63989258 -0.76123047 217.65649414 C-1.94523437 217.65713867 -3.12923828 217.6577832 -4.34912109 217.65844727 C-5.42863037 217.66142822 -6.50813965 217.66440918 -7.62036133 217.66748047 C-11.78707616 217.14736586 -14.26064894 215.6201562 -17.22275734 212.69641685 C-19.19620664 209.26321409 -19.01727945 205.99998239 -18.98397827 202.14785767 C-18.98865824 201.31971223 -18.99333822 200.4915668 -18.99816 199.63832605 C-19.01014009 196.8592264 -19.00064097 194.08061712 -18.99121094 191.30151367 C-18.99527536 189.31068127 -19.00061651 187.31985113 -19.00714111 185.32902527 C-19.02083762 179.91781874 -19.01550593 174.50678349 -19.00600386 169.0955739 C-18.99841726 163.43556787 -19.00545028 157.77557667 -19.01016235 152.11557007 C-19.01562371 142.60770023 -19.00841924 133.09990025 -18.99414062 123.59204102 C-18.9778228 112.59936341 -18.98309483 101.6068528 -18.99961984 90.61417925 C-19.01323505 81.17967348 -19.0151539 71.74521797 -19.00730383 62.31070554 C-19.00262632 56.67446174 -19.00200448 51.03829641 -19.0119133 45.40205765 C-19.02058081 40.10133618 -19.01456481 34.80082984 -18.99723053 29.50013161 C-18.99326416 27.55468287 -18.9944023 25.60921602 -19.00101852 23.66377449 C-19.00921832 21.00775258 -18.99893126 18.35241969 -18.98397827 15.69644165 C-18.99067044 14.92678467 -18.9973626 14.1571277 -19.00425756 13.36414778 C-18.95240241 8.61421749 -18.14364586 5.32130573 -15.60302734 1.29516602 C-11.10952846 -0.95158342 -4.99754154 0.02659999 0 0 Z " fill="#1086CE" transform="translate(1611.60302734375,77.704833984375)"/>
<path d="M0 0 C1.12433198 -0.00445668 1.12433198 -0.00445668 2.27137774 -0.0090034 C4.79630135 -0.0177116 7.32117766 -0.01920043 9.84611511 -0.02069092 C11.65108339 -0.02531761 13.45605069 -0.03034206 15.26101685 -0.03573608 C20.1743002 -0.04887678 25.08756989 -0.05530833 30.00086808 -0.05974674 C33.06869266 -0.06267487 36.13651348 -0.06677919 39.20433617 -0.07125092 C48.79756714 -0.08493046 58.39078954 -0.09459479 67.98402959 -0.09845281 C79.06772264 -0.10293436 90.15129242 -0.12048487 101.23494798 -0.1494534 C109.79550773 -0.17105278 118.35603276 -0.18115616 126.91661948 -0.18249393 C132.03253295 -0.18354324 137.14833062 -0.18947777 142.26421547 -0.20731354 C147.07652797 -0.22376401 151.88863724 -0.22596446 156.70096779 -0.21717453 C158.46785017 -0.21640252 160.23474334 -0.22076838 162.00159836 -0.23063278 C164.41284868 -0.24330591 166.82337419 -0.23750108 169.23461914 -0.22705078 C169.93462518 -0.23510719 170.63463122 -0.24316359 171.35584956 -0.25146413 C175.67354849 -0.20766788 178.35383448 0.53457852 181.80778503 3.14044189 C185.30676059 8.03874265 184.2182346 14.83423274 184.24528503 20.57794189 C184.27815613 21.80577393 184.31102722 23.03360596 184.34489441 24.29864502 C184.4051322 34.35835525 184.4051322 34.35835525 181.46794128 37.42559814 C177.15641334 40.20498253 173.54021123 40.28892864 168.57797241 40.28761292 C167.836436 40.2912896 167.09489959 40.29496629 166.33089238 40.29875439 C163.83905211 40.30979251 161.34725353 40.31363527 158.85539246 40.31744385 C157.07160306 40.32370833 155.28781497 40.33035512 153.50402832 40.33735657 C148.65272269 40.35476594 143.80142692 40.36531788 138.9500978 40.3735621 C135.91994986 40.37871176 132.88980498 40.38478747 129.85965919 40.39107323 C120.3812282 40.41012404 110.902805 40.42435614 101.42435855 40.4326852 C90.47874931 40.44246209 79.53334206 40.46879389 68.58780402 40.50918609 C60.12996853 40.53932838 51.67219101 40.55415222 43.21430284 40.55746621 C38.16148662 40.55981858 33.10888621 40.56880354 28.05612755 40.59392738 C23.30285085 40.6171805 18.5499325 40.62145247 13.79661369 40.611166 C12.05271972 40.61066988 10.30880827 40.61701278 8.56496811 40.63072205 C6.1823981 40.64840378 3.80111937 40.64135413 1.41854858 40.62818909 C0.7299194 40.63915833 0.04129022 40.65012758 -0.66820651 40.66142923 C-5.58936015 40.59586552 -8.39858791 39.21208563 -12.19221497 36.14044189 C-14.46894153 31.58698876 -13.46742796 25.32688639 -13.50471497 20.32794189 C-13.53371887 19.04339111 -13.56272278 17.75884033 -13.59260559 16.43536377 C-13.6009845 15.19721924 -13.6093634 13.95907471 -13.61799622 12.68341064 C-13.63257874 11.54927734 -13.64716125 10.41514404 -13.66218567 9.24664307 C-13.09152964 5.47497728 -11.8269758 3.84448207 -9.19221497 1.14044189 C-6.23677726 -0.33727696 -3.24030337 -0.00397293 0 0 Z " fill="#1186CE" transform="translate(1681.1922149658203,245.85955810546875)"/>
</svg>
