<svg version="1.1" id="Layer_1" xmlns="http://www.w3.org/2000/svg" xmlns:xlink="http://www.w3.org/1999/xlink" x="0px" y="0px"
	 width="100%" viewBox="0 0 2000 360" enable-background="new 0 0 2000 360" xml:space="preserve">
<path fill="#000000" opacity="1.000000" stroke="none" 
	d="
M1452.000000,361.000000 
	C968.000000,361.000000 484.500000,361.000000 1.000000,361.000000 
	C1.000000,241.000000 1.000000,121.000000 1.000000,1.000000 
	C667.666687,1.000000 1334.333374,1.000000 2001.000000,1.000000 
	C2001.000000,121.000000 2001.000000,241.000000 2001.000000,361.000000 
	C1818.166626,361.000000 1635.333374,361.000000 1452.000000,361.000000 
M142.162903,120.011353 
	C138.283188,122.174606 137.088699,125.790459 137.024551,129.887115 
	C136.933289,135.715530 137.002243,141.546432 137.001221,147.376282 
	C136.999893,154.967606 139.970642,157.989502 147.523285,157.995728 
	C164.513107,158.009735 181.502945,158.000031 198.492783,157.999985 
	C200.250061,157.999969 202.007339,157.999985 204.001190,157.999985 
	C204.001190,167.146820 203.973404,175.624619 204.010590,184.102112 
	C204.037064,190.138458 208.830444,194.956085 214.831818,194.990067 
	C221.660843,195.028763 228.493439,194.870087 235.318497,195.039108 
	C240.700287,195.172363 244.235138,193.204147 245.105240,187.608826 
	C245.478760,185.206924 245.976379,182.784683 245.980316,180.370956 
	C246.037094,145.558548 245.986084,110.745964 246.045288,75.933563 
	C246.058380,68.238457 243.102036,64.860222 234.829590,64.908073 
	C203.516052,65.089180 172.199417,65.134262 140.887512,64.844345 
	C135.010895,64.789932 131.120087,67.721542 131.021774,74.689095 
	C130.932495,81.017380 130.988708,87.347961 131.005356,93.677460 
	C131.023163,100.449272 134.540863,103.989609 141.306503,103.995270 
	C160.461685,104.011314 179.616913,104.001457 198.772110,104.001793 
	C200.387894,104.001823 202.003677,104.001801 203.935562,104.001801 
	C203.935562,109.277718 203.953125,114.068451 203.900391,118.858414 
	C203.896408,119.219696 203.391769,119.575455 202.675568,119.171165 
	C183.423691,119.120049 164.171814,119.059502 144.919937,119.056610 
	C144.239655,119.056511 143.559296,119.628410 142.162903,120.011353 
M743.969971,190.977615 
	C754.963867,190.934372 765.957825,190.891129 777.805054,191.037155 
	C778.201416,192.654739 778.939209,194.271439 778.943420,195.890045 
	C779.014954,223.386520 778.990417,250.883224 778.998474,278.379883 
	C779.001648,289.207855 782.726746,293.013550 793.269958,293.012482 
	C798.935974,293.011902 804.602234,293.048065 810.267883,293.001404 
	C817.190613,292.944397 820.972473,289.135803 820.971863,282.356781 
	C820.966125,217.864639 820.965088,153.372498 820.964661,88.880356 
	C820.964661,87.380653 821.051392,85.878342 820.989380,84.381729 
	C820.799805,79.807884 818.875732,76.165665 814.050781,75.761101 
	C806.795471,75.152771 799.438721,75.653625 792.205933,74.903564 
	C783.980652,74.050568 779.190918,79.189049 779.071289,88.284859 
	C778.817261,107.612495 778.993835,126.945801 778.993896,146.276779 
	C778.993896,148.052414 778.993896,149.828064 778.993896,152.000092 
	C776.797913,152.000092 775.167114,152.000092 773.536255,152.000092 
	C762.537598,152.000076 751.538757,152.034149 740.540344,151.982773 
	C736.330017,151.963120 733.416565,153.572510 733.034668,158.010925 
	C732.528748,163.891815 731.841919,169.816833 732.073914,175.689651 
	C732.633667,189.857605 732.673645,187.876724 743.969971,190.977615 
M354.845428,194.663910 
	C354.896881,160.593307 354.967529,126.522720 354.987305,92.452103 
	C354.992798,82.985207 354.847443,73.518227 354.875305,63.297241 
	C351.646027,54.297497 351.228729,54.000862 341.815704,54.001518 
	C335.483826,54.001961 329.151825,53.979733 322.820068,54.007767 
	C317.938721,54.029381 315.023346,56.983105 315.008514,61.958096 
	C314.979706,71.622475 315.000549,81.286995 315.000610,90.951462 
	C315.000732,103.441818 315.000458,103.446594 302.494080,102.905685 
	C302.050995,102.886520 301.620453,102.577545 300.994263,102.327988 
	C300.994263,89.488144 300.773193,76.669022 301.094849,63.863537 
	C301.238678,58.138599 296.764313,53.682873 291.116638,53.925304 
	C283.798492,54.239437 276.456573,53.987812 269.124939,54.004818 
	C263.992004,54.016724 261.061981,56.947376 261.011749,62.217464 
	C260.954559,68.215553 260.997772,74.214600 260.997833,80.213234 
	C260.998230,117.704689 260.994293,155.196136 261.004089,192.687592 
	C261.005554,198.342697 263.192291,202.191040 268.284637,202.600143 
	C276.378174,203.250366 284.635803,203.412308 292.686554,202.528610 
	C298.674744,201.871323 301.252899,197.500397 301.107910,191.367294 
	C300.757385,176.545624 300.993561,161.710083 300.993256,146.880127 
	C300.993225,145.300491 300.993256,143.720871 300.993256,142.239502 
	C306.027893,142.239502 310.305969,142.239502 315.000671,142.239502 
	C315.000671,144.097778 315.000702,145.722260 315.000671,147.346741 
	C315.000641,162.843201 314.987946,178.339691 315.007660,193.836121 
	C315.014343,199.084335 318.437164,202.867737 323.535156,202.968475 
	C330.530762,203.106735 337.533936,203.118515 344.528748,202.959839 
	C349.658478,202.843445 353.219635,199.738052 354.845428,194.663910 
M1311.831665,105.332085 
	C1309.398560,96.470428 1306.509033,95.876289 1299.065308,95.996361 
	C1297.232544,96.025932 1295.398926,96.001060 1293.565674,96.001060 
	C1259.067139,96.001022 1224.568481,96.046425 1190.070190,95.948616 
	C1185.262817,95.934982 1181.817017,97.728531 1181.308105,102.463615 
	C1180.479614,110.172874 1179.977417,117.969086 1180.126953,125.713348 
	C1180.226929,130.886353 1185.740723,135.005463 1190.988892,135.004822 
	C1215.487915,135.001816 1239.986816,135.001999 1264.485840,135.001068 
	C1266.241333,135.000992 1267.996948,135.001068 1269.997314,135.001068 
	C1269.997314,142.537872 1269.988281,149.354858 1270.002563,156.171799 
	C1270.007324,158.423676 1269.752563,159.307220 1266.702148,159.264709 
	C1243.208252,158.937256 1219.707031,158.890732 1196.211670,159.115845 
	C1192.207275,159.154205 1188.078613,160.664413 1187.901733,166.147568 
	C1187.667603,173.414719 1187.159424,180.675385 1187.040894,187.943268 
	C1186.918701,195.439453 1189.600586,197.996002 1197.027466,197.997177 
	C1219.359863,198.000748 1241.694092,198.144958 1264.023438,197.883636 
	C1269.001831,197.825348 1270.198730,199.471817 1270.098267,204.162521 
	C1269.816284,217.322601 1270.101074,230.493820 1269.948242,243.658173 
	C1269.889282,248.735901 1271.952148,252.326721 1276.878540,252.911774 
	C1283.893188,253.744827 1291.010986,253.858704 1298.089478,253.970505 
	C1307.639038,254.121338 1312.388184,248.756744 1311.954102,238.030334 
	C1311.924561,194.053482 1311.895020,150.076630 1311.831665,105.332085 
M558.968384,208.050522 
	C558.978943,195.434860 559.015808,182.819168 558.994507,170.203568 
	C558.949890,143.814499 558.874695,117.425484 558.932678,90.250267 
	C557.890442,82.665932 556.114441,81.001427 549.002380,81.000893 
	C506.010162,80.997658 463.017578,81.079079 420.026154,80.894386 
	C414.890076,80.872314 411.628906,83.019585 411.218811,87.508530 
	C410.473511,95.666794 410.294250,103.951653 410.822998,112.122574 
	C411.126709,116.816116 414.645935,119.102219 419.843689,119.075897 
	C450.337372,118.921494 480.832275,118.999969 511.326752,118.999931 
	C513.097534,118.999931 514.868286,118.999931 516.622437,118.999931 
	C516.622437,126.998482 516.622437,134.383194 516.622437,141.994370 
	C514.428223,141.994370 512.608826,141.994339 510.789459,141.994385 
	C481.961334,141.994888 453.133209,141.986176 424.305084,142.002716 
	C417.490967,142.006622 414.032990,145.509262 414.005554,152.375732 
	C413.979584,158.874466 413.998169,165.373367 414.000488,171.872192 
	C414.002899,178.553741 417.510956,181.998810 424.305664,181.998184 
	C453.133789,181.995544 481.961884,181.992950 510.790009,181.990372 
	C512.731079,181.990204 514.672180,181.990356 516.998718,181.990356 
	C516.998718,191.711670 516.942810,200.842819 517.016357,209.972900 
	C517.075745,217.343933 520.939819,223.096451 528.786621,222.141708 
	C534.697998,221.422424 540.767151,221.999039 546.766052,221.999466 
	C555.987793,222.000107 559.227966,218.496460 558.968384,208.050522 
M1559.972046,210.074860 
	C1559.918213,187.385086 1559.864258,164.695328 1559.953979,141.182251 
	C1559.611816,138.606506 1559.489624,135.978531 1558.892578,133.463272 
	C1553.908081,112.463806 1540.681885,98.963806 1520.213501,93.142220 
	C1503.168701,88.294357 1485.659180,88.215508 1468.587402,93.122047 
	C1443.390015,100.363960 1429.848022,116.735985 1429.126709,143.208130 
	C1428.509888,165.846100 1428.957642,188.514404 1429.047607,211.168823 
	C1429.060425,214.400055 1429.358398,217.715179 1430.126709,220.843567 
	C1433.298340,233.759140 1439.907104,244.295242 1451.617432,251.284470 
	C1461.416870,257.133270 1471.907715,259.963654 1483.297852,261.223572 
	C1501.375854,263.223206 1518.526611,261.381989 1534.601807,252.680130 
	C1551.071655,243.764511 1559.119385,229.562210 1559.972046,210.074860 
M1793.500000,217.998642 
	C1805.657593,217.998764 1817.815186,218.005142 1829.972778,217.996338 
	C1836.063477,217.991928 1839.965820,214.160660 1839.974243,208.166336 
	C1839.991455,195.842255 1839.992920,183.518158 1839.993774,171.194061 
	C1839.995850,144.214203 1840.057495,117.234093 1839.952026,90.254646 
	C1839.921753,82.510178 1836.425781,76.302155 1826.832886,76.963409 
	C1821.197144,77.351883 1815.512939,77.041939 1809.850464,77.032410 
	C1801.343384,77.018089 1798.067749,80.314468 1798.008301,89.070526 
	C1797.965332,95.398842 1797.749023,101.740997 1798.084229,108.051796 
	C1798.322754,112.542053 1797.101807,114.299385 1792.275635,114.089806 
	C1783.465454,113.707214 1774.626953,113.980606 1765.800171,113.980515 
	C1756.356079,113.980423 1746.911987,113.980492 1737.009644,113.980492 
	C1737.009644,105.050056 1737.052368,96.600136 1736.996582,88.150871 
	C1736.949341,80.990746 1732.937378,77.083549 1725.679810,77.041145 
	C1720.017456,77.008057 1714.318726,77.441483 1708.700439,76.943649 
	C1699.078125,76.091026 1695.255981,81.312973 1695.110474,90.702774 
	C1694.849976,107.519501 1695.038940,124.343185 1695.039307,141.163956 
	C1695.039673,162.814453 1695.020020,184.464996 1695.049194,206.115448 
	C1695.060181,214.211746 1698.779419,217.997757 1706.564209,217.998245 
	C1735.209473,218.000015 1763.854736,217.998749 1793.500000,217.998642 
M1060.855469,230.166519 
	C1062.236938,223.658752 1064.622070,217.179764 1064.809692,210.637726 
	C1065.349121,191.832993 1065.316406,172.995148 1064.864014,154.185822 
	C1064.644043,145.041473 1063.749268,135.763458 1061.782837,126.849693 
	C1059.424927,116.159782 1052.460327,107.871033 1043.476929,101.931816 
	C1034.153198,95.767570 1024.011841,91.723198 1012.413269,90.747360 
	C995.475952,89.322365 979.109131,89.738739 963.354614,96.975426 
	C944.233948,105.758385 935.071960,121.500854 934.236145,141.532578 
	C933.237183,165.473816 933.774780,189.492798 934.144897,213.470413 
	C934.281006,222.287552 937.330078,230.585922 942.434998,237.930176 
	C950.809265,249.977921 962.783508,256.224701 976.776306,259.419250 
	C991.372498,262.751587 1006.029541,263.266083 1020.565002,259.878387 
	C1037.816406,255.857681 1052.568237,247.932480 1060.855469,230.166519 
M277.500000,214.000092 
	C260.174347,214.000275 242.848618,213.977112 225.523026,214.014465 
	C220.154068,214.026047 217.037231,216.865219 217.027954,222.010605 
	C216.970856,253.663177 216.930206,285.316376 217.155624,316.967468 
	C217.170639,319.075165 218.949509,322.273254 220.732590,323.035583 
	C224.431656,324.617188 228.681686,325.590576 232.711502,325.611572 
	C268.361420,325.797577 304.013458,325.845947 339.663116,325.637878 
	C349.416534,325.580963 353.308838,323.256195 353.152283,312.501495 
	C352.720764,282.854248 353.014191,253.196609 352.997681,223.543091 
	C352.993866,216.711411 350.273224,214.008392 343.471252,214.004776 
	C321.814178,213.993256 300.157074,214.000244 277.500000,214.000092 
M618.000000,211.500000 
	C617.999939,222.159088 617.943848,232.818588 618.020447,243.477127 
	C618.068359,250.150101 621.003052,252.994492 627.603882,252.996185 
	C661.912903,253.004913 696.221863,253.005005 730.530884,252.996475 
	C736.978210,252.994873 740.674805,249.891693 740.905151,243.834763 
	C741.139221,237.681381 741.249939,231.494324 740.877380,225.354614 
	C740.462524,218.518494 737.564453,214.686356 729.904907,214.844955 
	C708.429382,215.289642 686.938599,214.999969 665.453857,214.999985 
	C663.706604,214.999985 661.959351,214.999969 660.205444,214.999969 
	C660.205444,187.629745 660.205444,161.030365 660.205444,134.270508 
	C660.779175,134.599777 661.065125,134.907425 661.351501,134.907806 
	C683.500244,134.937775 705.650391,135.077881 727.796570,134.842850 
	C732.468811,134.793289 737.383240,132.930466 737.730469,127.357430 
	C738.225037,119.418266 738.180237,111.375336 737.475220,103.456009 
	C736.997253,98.086334 733.524658,96.000000 727.983643,96.000137 
	C695.007019,96.000977 662.030457,96.000519 629.053833,96.000481 
	C620.253235,96.000473 618.003479,98.241188 618.002075,107.073372 
	C617.996582,141.548920 617.999939,176.024460 618.000000,211.500000 
M1407.589966,164.304993 
	C1406.172852,158.434479 1403.060303,156.037552 1396.763428,156.012161 
	C1391.983765,155.992905 1387.203857,156.008331 1382.000854,156.008331 
	C1382.000854,153.843658 1382.000854,152.219238 1382.000732,150.594833 
	C1382.000000,129.446274 1382.013916,108.297707 1381.991333,87.149170 
	C1381.982788,79.169731 1377.835327,75.069672 1369.771851,75.022919 
	C1363.444092,74.986229 1357.115723,74.980141 1350.788086,75.021797 
	C1343.668091,75.068672 1340.002930,78.848297 1340.003418,86.020958 
	C1340.007324,138.642563 1340.008545,191.264160 1340.009155,243.885757 
	C1340.009277,256.541595 1340.217529,269.202606 1339.912109,281.851105 
	C1339.753662,288.412354 1344.906250,293.755341 1351.029297,293.153534 
	C1357.461792,292.521301 1364.004883,293.064545 1370.498657,292.993805 
	C1377.773926,292.914581 1381.982300,288.649963 1381.986938,281.405853 
	C1382.004272,254.428970 1381.998291,227.452103 1382.000977,200.475220 
	C1382.001099,198.724472 1382.000977,196.973724 1382.000977,194.998871 
	C1387.728271,194.998871 1392.711426,195.018799 1397.694336,194.993912 
	C1404.115967,194.961838 1407.893799,191.427292 1407.980835,185.110794 
	C1408.072632,178.453308 1407.936157,171.792694 1407.589966,164.304993 
M1135.000000,204.537903 
	C1135.000000,201.442612 1135.000000,198.347321 1135.000000,194.998871 
	C1140.477417,194.998871 1145.290039,195.003525 1150.102661,194.997787 
	C1157.195557,194.989319 1160.004150,192.243378 1160.001953,185.336060 
	C1159.999878,178.671600 1160.001099,172.007141 1160.000000,165.342682 
	C1159.999023,159.705399 1156.290771,156.025452 1150.545044,156.001266 
	C1145.450928,155.979843 1140.356445,155.996780 1135.000000,155.996780 
	C1135.000000,153.669556 1135.000122,152.023422 1135.000000,150.377304 
	C1134.998291,129.550888 1135.038574,108.724335 1134.974731,87.898102 
	C1134.948364,79.319595 1130.563721,75.014389 1122.182739,75.015549 
	C1115.851440,75.016426 1109.520142,74.986290 1103.188965,75.023140 
	C1096.159546,75.064049 1093.002319,78.173714 1093.002075,85.006981 
	C1092.998657,150.985092 1092.998657,216.963196 1093.002075,282.941315 
	C1093.002441,289.363159 1096.552979,292.955505 1103.023193,293.001434 
	C1109.520630,293.047577 1116.018921,293.028778 1122.516602,292.998657 
	C1130.465088,292.961853 1134.994873,288.427368 1134.997925,280.501099 
	C1135.007446,255.509384 1135.000610,230.517685 1135.000000,204.537903 
M583.996033,276.198303 
	C583.992432,270.865204 583.981201,265.532135 583.986816,260.199036 
	C583.997375,250.126434 580.906860,247.017960 570.794312,247.014084 
	C546.962097,247.004944 523.129883,247.011139 499.297668,247.011124 
	C497.345490,247.011124 495.393311,247.011124 492.985840,247.011124 
	C492.985840,235.529770 492.983734,224.574081 492.986572,213.618393 
	C492.988403,206.582947 489.419403,203.018463 482.311798,203.003601 
	C475.478821,202.989304 468.645782,202.993317 461.812775,203.003265 
	C454.469727,203.013962 452.003510,205.464096 452.000916,212.739853 
	C451.996918,224.023743 451.999847,235.307632 451.999847,247.011093 
	C449.861908,247.011093 448.238190,247.011124 446.614471,247.011093 
	C430.448578,247.010864 414.282562,246.981430 398.116791,247.025131 
	C391.881104,247.041977 387.358307,250.413330 387.106232,255.869980 
	C386.745056,263.686737 386.965607,271.531647 387.018250,279.364044 
	C387.023041,280.072113 387.532745,280.828400 387.946136,281.473846 
	C390.934692,286.140137 395.667938,286.977386 400.635651,286.980988 
	C447.133453,287.014648 493.631287,287.001099 540.129089,287.001129 
	C550.628601,287.001129 561.138855,287.292114 571.624084,286.905151 
	C579.489685,286.614899 584.534058,284.144653 583.996033,276.198303 
M1635.961426,223.500000 
	C1635.961426,222.000153 1635.961426,220.500290 1635.961426,219.000443 
	C1635.963013,176.171371 1636.016602,133.342178 1635.915771,90.513344 
	C1635.898682,83.265274 1633.212280,78.134270 1624.545776,78.891563 
	C1618.260986,79.440720 1611.889771,78.997978 1605.557007,78.998665 
	C1596.410645,78.999664 1594.004883,81.430962 1594.003784,90.791862 
	C1593.996460,155.285461 1593.997925,219.779053 1594.002808,284.272644 
	C1594.003418,291.554443 1598.242920,295.881104 1605.602905,295.988159 
	C1611.601074,296.075409 1617.601562,296.027710 1623.600830,296.001251 
	C1632.354980,295.962646 1635.977417,292.262878 1635.970947,283.494110 
	C1635.956543,263.829407 1635.963257,244.164703 1635.961426,223.500000 
M1697.500000,247.011185 
	C1691.505005,247.011093 1685.509888,247.006073 1679.514893,247.012177 
	C1672.392456,247.019455 1669.032227,250.416183 1669.004639,257.675293 
	C1668.981689,263.670258 1668.997559,269.665344 1669.000854,275.660400 
	C1669.005249,283.488586 1672.538452,286.999390 1680.431152,286.999725 
	C1737.717163,287.002075 1795.003052,287.001251 1852.289062,287.000885 
	C1853.288208,287.000885 1854.290894,287.047455 1855.285889,286.982269 
	C1861.890625,286.549438 1865.995728,282.165222 1865.994995,275.577209 
	C1865.994385,270.248291 1865.726440,264.902557 1866.058472,259.594421 
	C1866.544434,251.823318 1862.492188,246.822693 1853.371216,246.873123 
	C1801.748779,247.158600 1750.124023,247.011185 1697.500000,247.011185 
z"/>
<path fill="#1187CF" opacity="1.000000" stroke="none" 
	d="
M1793.000000,217.998642 
	C1763.854736,217.998749 1735.209473,218.000015 1706.564209,217.998245 
	C1698.779419,217.997757 1695.060181,214.211746 1695.049194,206.115448 
	C1695.020020,184.464996 1695.039673,162.814453 1695.039307,141.163956 
	C1695.038940,124.343185 1694.849976,107.519501 1695.110474,90.702774 
	C1695.255981,81.312973 1699.078125,76.091026 1708.700439,76.943649 
	C1714.318726,77.441483 1720.017456,77.008057 1725.679810,77.041145 
	C1732.937378,77.083549 1736.949341,80.990746 1736.996582,88.150871 
	C1737.052368,96.600136 1737.009644,105.050056 1737.009644,113.980492 
	C1746.911987,113.980492 1756.356079,113.980423 1765.800171,113.980515 
	C1774.626953,113.980606 1783.465454,113.707214 1792.275635,114.089806 
	C1797.101807,114.299385 1798.322754,112.542053 1798.084229,108.051796 
	C1797.749023,101.740997 1797.965332,95.398842 1798.008301,89.070526 
	C1798.067749,80.314468 1801.343384,77.018089 1809.850464,77.032410 
	C1815.512939,77.041939 1821.197144,77.351883 1826.832886,76.963409 
	C1836.425781,76.302155 1839.921753,82.510178 1839.952026,90.254646 
	C1840.057495,117.234093 1839.995850,144.214203 1839.993774,171.194061 
	C1839.992920,183.518158 1839.991455,195.842255 1839.974243,208.166336 
	C1839.965820,214.160660 1836.063477,217.991928 1829.972778,217.996338 
	C1817.815186,218.005142 1805.657593,217.998764 1793.000000,217.998642 
M1794.242798,153.365662 
	C1776.455200,153.268127 1758.667725,153.163193 1740.880005,153.104721 
	C1740.273926,153.102737 1739.666260,153.567734 1738.216553,154.047012 
	C1737.864380,154.337357 1737.207031,154.625549 1737.204956,154.918411 
	C1737.149048,162.829468 1737.160278,170.740997 1737.160278,178.997589 
	C1756.544922,178.997589 1775.470337,179.063126 1794.392578,178.844650 
	C1795.605835,178.830643 1797.759766,176.674057 1797.830322,175.421463 
	C1798.185303,169.123260 1798.118042,162.789047 1797.855957,156.481720 
	C1797.817261,155.550720 1795.947144,154.695801 1794.242798,153.365662 
z"/>
<path fill="#1187CF" opacity="1.000000" stroke="none" 
	d="
M1060.655762,230.497284 
	C1052.568237,247.932480 1037.816406,255.857681 1020.565002,259.878387 
	C1006.029541,263.266083 991.372498,262.751587 976.776306,259.419250 
	C962.783508,256.224701 950.809265,249.977921 942.434998,237.930176 
	C937.330078,230.585922 934.281006,222.287552 934.144897,213.470413 
	C933.774780,189.492798 933.237183,165.473816 934.236145,141.532578 
	C935.071960,121.500854 944.233948,105.758385 963.354614,96.975426 
	C979.109131,89.738739 995.475952,89.322365 1012.413269,90.747360 
	C1024.011841,91.723198 1034.153198,95.767570 1043.476929,101.931816 
	C1052.460327,107.871033 1059.424927,116.159782 1061.782837,126.849693 
	C1063.749268,135.763458 1064.644043,145.041473 1064.864014,154.185822 
	C1065.316406,172.995148 1065.349121,191.832993 1064.809692,210.637726 
	C1064.622070,217.179764 1062.236938,223.658752 1060.655762,230.497284 
M1022.981262,209.091034 
	C1022.965332,186.717758 1022.949463,164.344467 1022.950684,141.178360 
	C1022.126099,134.224182 1018.546204,128.564194 1011.768555,127.516945 
	C1003.958679,126.310211 995.687561,126.237526 987.878723,127.412987 
	C980.537231,128.518112 976.021240,135.546555 976.007202,142.761322 
	C975.964172,164.922729 975.861206,187.085815 976.109924,209.244568 
	C976.163879,214.048965 977.800903,218.663040 982.223083,221.726242 
	C988.260559,225.908447 995.072327,226.214432 1002.001770,225.987305 
	C1012.509888,225.642899 1020.970825,223.355103 1022.981262,209.091034 
z"/>
<path fill="#1187CF" opacity="1.000000" stroke="none" 
	d="
M1559.808838,211.004883 
	C1559.119385,229.562210 1551.071655,243.764511 1534.601807,252.680130 
	C1518.526611,261.381989 1501.375854,263.223206 1483.297852,261.223572 
	C1471.907715,259.963654 1461.416870,257.133270 1451.617432,251.284470 
	C1439.907104,244.295242 1433.298340,233.759140 1430.126709,220.843567 
	C1429.358398,217.715179 1429.060425,214.400055 1429.047607,211.168823 
	C1428.957642,188.514404 1428.509888,165.846100 1429.126709,143.208130 
	C1429.848022,116.735985 1443.390015,100.363960 1468.587402,93.122047 
	C1485.659180,88.215508 1503.168701,88.294357 1520.213501,93.142220 
	C1540.681885,98.963806 1553.908081,112.463806 1558.892578,133.463272 
	C1559.489624,135.978531 1559.611816,138.606506 1559.657471,141.940887 
	C1559.254272,143.181808 1559.054688,143.663971 1559.053955,144.146408 
	C1559.025879,165.332382 1559.003418,186.518402 1559.037109,207.704300 
	C1559.038818,208.804901 1559.540161,209.904709 1559.808838,211.004883 
M1517.686768,211.374756 
	C1517.766846,189.198288 1517.852661,167.021851 1517.895142,144.845306 
	C1517.896240,144.246216 1517.425293,143.646210 1516.982910,142.195984 
	C1516.932739,133.601303 1514.202515,128.600372 1506.416748,127.451561 
	C1498.602051,126.298515 1490.364136,126.401672 1482.525391,127.491302 
	C1475.152100,128.516235 1471.006470,135.157684 1471.002319,142.837616 
	C1470.990356,164.797684 1470.985840,186.757751 1471.003540,208.717804 
	C1471.009644,216.346054 1474.636963,221.678421 1482.000244,224.101074 
	C1490.473755,226.889084 1499.027588,227.017044 1507.622925,224.153732 
	C1513.619751,222.156097 1516.665771,218.156799 1517.686768,211.374756 
z"/>
<path fill="#1187CF" opacity="1.000000" stroke="none" 
	d="
M558.811279,208.973846 
	C559.227966,218.496460 555.987793,222.000107 546.766052,221.999466 
	C540.767151,221.999039 534.697998,221.422424 528.786621,222.141708 
	C520.939819,223.096451 517.075745,217.343933 517.016357,209.972900 
	C516.942810,200.842819 516.998718,191.711670 516.998718,181.990356 
	C514.672180,181.990356 512.731079,181.990204 510.790009,181.990372 
	C481.961884,181.992950 453.133789,181.995544 424.305664,181.998184 
	C417.510956,181.998810 414.002899,178.553741 414.000488,171.872192 
	C413.998169,165.373367 413.979584,158.874466 414.005554,152.375732 
	C414.032990,145.509262 417.490967,142.006622 424.305084,142.002716 
	C453.133209,141.986176 481.961334,141.994888 510.789459,141.994385 
	C512.608826,141.994339 514.428223,141.994370 516.622437,141.994370 
	C516.622437,134.383194 516.622437,126.998482 516.622437,118.999931 
	C514.868286,118.999931 513.097534,118.999931 511.326752,118.999931 
	C480.832275,118.999969 450.337372,118.921494 419.843689,119.075897 
	C414.645935,119.102219 411.126709,116.816116 410.822998,112.122574 
	C410.294250,103.951653 410.473511,95.666794 411.218811,87.508530 
	C411.628906,83.019585 414.890076,80.872314 420.026154,80.894386 
	C463.017578,81.079079 506.010162,80.997658 549.002380,81.000893 
	C556.114441,81.001427 557.890442,82.665932 558.652710,90.988831 
	C558.249756,92.544830 558.019348,93.362206 558.018982,94.179695 
	C558.000366,131.169327 557.993774,168.158966 558.035095,205.148560 
	C558.036560,206.423935 558.541199,207.698761 558.811279,208.973846 
z"/>
<path fill="#18A7F0" opacity="1.000000" stroke="none" 
	d="
M278.000000,214.000092 
	C300.157074,214.000244 321.814178,213.993256 343.471252,214.004776 
	C350.273224,214.008392 352.993866,216.711411 352.997681,223.543091 
	C353.014191,253.196609 352.720764,282.854248 353.152283,312.501495 
	C353.308838,323.256195 349.416534,325.580963 339.663116,325.637878 
	C304.013458,325.845947 268.361420,325.797577 232.711502,325.611572 
	C228.681686,325.590576 224.431656,324.617188 220.732590,323.035583 
	C218.949509,322.273254 217.170639,319.075165 217.155624,316.967468 
	C216.930206,285.316376 216.970856,253.663177 217.027954,222.010605 
	C217.037231,216.865219 220.154068,214.026047 225.523026,214.014465 
	C242.848618,213.977112 260.174347,214.000275 278.000000,214.000092 
M262.705994,287.626740 
	C277.197845,287.725708 291.689667,287.833893 306.181671,287.890961 
	C306.777466,287.893311 307.375153,287.416260 308.847107,287.024200 
	C309.894043,286.382874 311.842133,285.757111 311.853516,285.097900 
	C312.042267,274.175049 311.987915,263.247986 311.987915,252.323608 
	C293.704681,252.323608 275.989990,252.323608 258.134094,252.323608 
	C258.134094,263.909210 258.134094,275.185608 258.134094,286.665100 
	C259.495178,286.838989 260.761597,287.000793 262.705994,287.626740 
z"/>
<path fill="#1187CF" opacity="1.000000" stroke="none" 
	d="
M1311.749146,238.938309 
	C1312.388184,248.756744 1307.639038,254.121338 1298.089478,253.970505 
	C1291.010986,253.858704 1283.893188,253.744827 1276.878540,252.911774 
	C1271.952148,252.326721 1269.889282,248.735901 1269.948242,243.658173 
	C1270.101074,230.493820 1269.816284,217.322601 1270.098267,204.162521 
	C1270.198730,199.471817 1269.001831,197.825348 1264.023438,197.883636 
	C1241.694092,198.144958 1219.359863,198.000748 1197.027466,197.997177 
	C1189.600586,197.996002 1186.918701,195.439453 1187.040894,187.943268 
	C1187.159424,180.675385 1187.667603,173.414719 1187.901733,166.147568 
	C1188.078613,160.664413 1192.207275,159.154205 1196.211670,159.115845 
	C1219.707031,158.890732 1243.208252,158.937256 1266.702148,159.264709 
	C1269.752563,159.307220 1270.007324,158.423676 1270.002563,156.171799 
	C1269.988281,149.354858 1269.997314,142.537872 1269.997314,135.001068 
	C1267.996948,135.001068 1266.241333,135.000992 1264.485840,135.001068 
	C1239.986816,135.001999 1215.487915,135.001816 1190.988892,135.004822 
	C1185.740723,135.005463 1180.226929,130.886353 1180.126953,125.713348 
	C1179.977417,117.969086 1180.479614,110.172874 1181.308105,102.463615 
	C1181.817017,97.728531 1185.262817,95.934982 1190.070190,95.948616 
	C1224.568481,96.046425 1259.067139,96.001022 1293.565674,96.001060 
	C1295.398926,96.001060 1297.232544,96.025932 1299.065308,95.996361 
	C1306.509033,95.876289 1309.398560,96.470428 1311.602783,106.036514 
	C1311.250366,107.557457 1311.018921,108.373940 1311.018677,109.190529 
	C1311.000244,151.160294 1310.994629,193.130081 1311.031860,235.099823 
	C1311.032959,236.379532 1311.499512,237.658829 1311.749146,238.938309 
z"/>
<path fill="#1187CF" opacity="1.000000" stroke="none" 
	d="
M618.000000,211.000000 
	C617.999939,176.024460 617.996582,141.548920 618.002075,107.073372 
	C618.003479,98.241188 620.253235,96.000473 629.053833,96.000481 
	C662.030457,96.000519 695.007019,96.000977 727.983643,96.000137 
	C733.524658,96.000000 736.997253,98.086334 737.475220,103.456009 
	C738.180237,111.375336 738.225037,119.418266 737.730469,127.357430 
	C737.383240,132.930466 732.468811,134.793289 727.796570,134.842850 
	C705.650391,135.077881 683.500244,134.937775 661.351501,134.907806 
	C661.065125,134.907425 660.779175,134.599777 660.205444,134.270508 
	C660.205444,161.030365 660.205444,187.629745 660.205444,214.999969 
	C661.959351,214.999969 663.706604,214.999985 665.453857,214.999985 
	C686.938599,214.999969 708.429382,215.289642 729.904907,214.844955 
	C737.564453,214.686356 740.462524,218.518494 740.877380,225.354614 
	C741.249939,231.494324 741.139221,237.681381 740.905151,243.834763 
	C740.674805,249.891693 736.978210,252.994873 730.530884,252.996475 
	C696.221863,253.005005 661.912903,253.004913 627.603882,252.996185 
	C621.003052,252.994492 618.068359,250.150101 618.020447,243.477127 
	C617.943848,232.818588 617.999939,222.159088 618.000000,211.000000 
z"/>
<path fill="#18A8F1" opacity="1.000000" stroke="none" 
	d="
M354.086395,195.105270 
	C353.219635,199.738052 349.658478,202.843445 344.528748,202.959839 
	C337.533936,203.118515 330.530762,203.106735 323.535156,202.968475 
	C318.437164,202.867737 315.014343,199.084335 315.007660,193.836121 
	C314.987946,178.339691 315.000641,162.843201 315.000671,147.346741 
	C315.000702,145.722260 315.000671,144.097778 315.000671,142.239502 
	C310.305969,142.239502 306.027893,142.239502 300.993256,142.239502 
	C300.993256,143.720871 300.993225,145.300491 300.993256,146.880127 
	C300.993561,161.710083 300.757385,176.545624 301.107910,191.367294 
	C301.252899,197.500397 298.674744,201.871323 292.686554,202.528610 
	C284.635803,203.412308 276.378174,203.250366 268.284637,202.600143 
	C263.192291,202.191040 261.005554,198.342697 261.004089,192.687592 
	C260.994293,155.196136 260.998230,117.704689 260.997833,80.213234 
	C260.997772,74.214600 260.954559,68.215553 261.011749,62.217464 
	C261.061981,56.947376 263.992004,54.016724 269.124939,54.004818 
	C276.456573,53.987812 283.798492,54.239437 291.116638,53.925304 
	C296.764313,53.682873 301.238678,58.138599 301.094849,63.863537 
	C300.773193,76.669022 300.994263,89.488144 300.994263,102.327988 
	C301.620453,102.577545 302.050995,102.886520 302.494080,102.905685 
	C315.000458,103.446594 315.000732,103.441818 315.000610,90.951462 
	C315.000549,81.286995 314.979706,71.622475 315.008514,61.958096 
	C315.023346,56.983105 317.938721,54.029381 322.820068,54.007767 
	C329.151825,53.979733 335.483826,54.001961 341.815704,54.001518 
	C351.228729,54.000862 351.646027,54.297497 354.611511,64.022278 
	C354.232880,65.566208 354.017456,66.385124 354.017700,67.203972 
	C354.029053,109.837746 354.058685,152.471512 354.086395,195.105270 
z"/>
<path fill="#1187CF" opacity="1.000000" stroke="none" 
	d="
M743.048706,190.827255 
	C732.673645,187.876724 732.633667,189.857605 732.073914,175.689651 
	C731.841919,169.816833 732.528748,163.891815 733.034668,158.010925 
	C733.416565,153.572510 736.330017,151.963120 740.540344,151.982773 
	C751.538757,152.034149 762.537598,152.000076 773.536255,152.000092 
	C775.167114,152.000092 776.797913,152.000092 778.993896,152.000092 
	C778.993896,149.828064 778.993896,148.052414 778.993896,146.276779 
	C778.993835,126.945801 778.817261,107.612495 779.071289,88.284859 
	C779.190918,79.189049 783.980652,74.050568 792.205933,74.903564 
	C799.438721,75.653625 806.795471,75.152771 814.050781,75.761101 
	C818.875732,76.165665 820.799805,79.807884 820.989380,84.381729 
	C821.051392,85.878342 820.964661,87.380653 820.964661,88.880356 
	C820.965088,153.372498 820.966125,217.864639 820.971863,282.356781 
	C820.972473,289.135803 817.190613,292.944397 810.267883,293.001404 
	C804.602234,293.048065 798.935974,293.011902 793.269958,293.012482 
	C782.726746,293.013550 779.001648,289.207855 778.998474,278.379883 
	C778.990417,250.883224 779.014954,223.386520 778.943420,195.890045 
	C778.939209,194.271439 778.201416,192.654739 777.046936,190.700912 
	C769.807983,190.243317 763.325989,189.987854 756.846802,190.046036 
	C752.245422,190.087326 747.647949,190.551712 743.048706,190.827255 
z"/>
<path fill="#18A8F1" opacity="1.000000" stroke="none" 
	d="
M203.119873,119.933777 
	C203.391769,119.575455 203.896408,119.219696 203.900391,118.858414 
	C203.953125,114.068451 203.935562,109.277718 203.935562,104.001801 
	C202.003677,104.001801 200.387894,104.001823 198.772110,104.001793 
	C179.616913,104.001457 160.461685,104.011314 141.306503,103.995270 
	C134.540863,103.989609 131.023163,100.449272 131.005356,93.677460 
	C130.988708,87.347961 130.932495,81.017380 131.021774,74.689095 
	C131.120087,67.721542 135.010895,64.789932 140.887512,64.844345 
	C172.199417,65.134262 203.516052,65.089180 234.829590,64.908073 
	C243.102036,64.860222 246.058380,68.238457 246.045288,75.933563 
	C245.986084,110.745964 246.037094,145.558548 245.980316,180.370956 
	C245.976379,182.784683 245.478760,185.206924 245.105240,187.608826 
	C244.235138,193.204147 240.700287,195.172363 235.318497,195.039108 
	C228.493439,194.870087 221.660843,195.028763 214.831818,194.990067 
	C208.830444,194.956085 204.037064,190.138458 204.010590,184.102112 
	C203.973404,175.624619 204.001190,167.146820 204.001190,157.999985 
	C202.007339,157.999985 200.250061,157.999969 198.492783,157.999985 
	C181.502945,158.000031 164.513107,158.009735 147.523285,157.995728 
	C139.970642,157.989502 136.999893,154.967606 137.001221,147.376282 
	C137.002243,141.546432 136.933289,135.715530 137.024551,129.887115 
	C137.088699,125.790459 138.283188,122.174606 142.996124,119.993332 
	C163.592865,119.961464 183.356354,119.947617 203.119873,119.933777 
z"/>
<path fill="#1187CF" opacity="1.000000" stroke="none" 
	d="
M1407.744751,164.719208 
	C1407.936157,171.792694 1408.072632,178.453308 1407.980835,185.110794 
	C1407.893799,191.427292 1404.115967,194.961838 1397.694336,194.993912 
	C1392.711426,195.018799 1387.728271,194.998871 1382.000977,194.998871 
	C1382.000977,196.973724 1382.001099,198.724472 1382.000977,200.475220 
	C1381.998291,227.452103 1382.004272,254.428970 1381.986938,281.405853 
	C1381.982300,288.649963 1377.773926,292.914581 1370.498657,292.993805 
	C1364.004883,293.064545 1357.461792,292.521301 1351.029297,293.153534 
	C1344.906250,293.755341 1339.753662,288.412354 1339.912109,281.851105 
	C1340.217529,269.202606 1340.009277,256.541595 1340.009155,243.885757 
	C1340.008545,191.264160 1340.007324,138.642563 1340.003418,86.020958 
	C1340.002930,78.848297 1343.668091,75.068672 1350.788086,75.021797 
	C1357.115723,74.980141 1363.444092,74.986229 1369.771851,75.022919 
	C1377.835327,75.069672 1381.982788,79.169731 1381.991333,87.149170 
	C1382.013916,108.297707 1382.000000,129.446274 1382.000732,150.594833 
	C1382.000854,152.219238 1382.000854,153.843658 1382.000854,156.008331 
	C1387.203857,156.008331 1391.983765,155.992905 1396.763428,156.012161 
	C1403.060303,156.037552 1406.172852,158.434479 1407.744751,164.719208 
z"/>
<path fill="#1187CF" opacity="1.000000" stroke="none" 
	d="
M1135.000000,205.031937 
	C1135.000610,230.517685 1135.007446,255.509384 1134.997925,280.501099 
	C1134.994873,288.427368 1130.465088,292.961853 1122.516602,292.998657 
	C1116.018921,293.028778 1109.520630,293.047577 1103.023193,293.001434 
	C1096.552979,292.955505 1093.002441,289.363159 1093.002075,282.941315 
	C1092.998657,216.963196 1092.998657,150.985092 1093.002075,85.006981 
	C1093.002319,78.173714 1096.159546,75.064049 1103.188965,75.023140 
	C1109.520142,74.986290 1115.851440,75.016426 1122.182739,75.015549 
	C1130.563721,75.014389 1134.948364,79.319595 1134.974731,87.898102 
	C1135.038574,108.724335 1134.998291,129.550888 1135.000000,150.377304 
	C1135.000122,152.023422 1135.000000,153.669556 1135.000000,155.996780 
	C1140.356445,155.996780 1145.450928,155.979843 1150.545044,156.001266 
	C1156.290771,156.025452 1159.999023,159.705399 1160.000000,165.342682 
	C1160.001099,172.007141 1159.999878,178.671600 1160.001953,185.336060 
	C1160.004150,192.243378 1157.195557,194.989319 1150.102661,194.997787 
	C1145.290039,195.003525 1140.477417,194.998871 1135.000000,194.998871 
	C1135.000000,198.347321 1135.000000,201.442612 1135.000000,205.031937 
z"/>
<path fill="#1187CF" opacity="1.000000" stroke="none" 
	d="
M583.998413,276.657593 
	C584.534058,284.144653 579.489685,286.614899 571.624084,286.905151 
	C561.138855,287.292114 550.628601,287.001129 540.129089,287.001129 
	C493.631287,287.001099 447.133453,287.014648 400.635651,286.980988 
	C395.667938,286.977386 390.934692,286.140137 387.946136,281.473846 
	C387.532745,280.828400 387.023041,280.072113 387.018250,279.364044 
	C386.965607,271.531647 386.745056,263.686737 387.106232,255.869980 
	C387.358307,250.413330 391.881104,247.041977 398.116791,247.025131 
	C414.282562,246.981430 430.448578,247.010864 446.614471,247.011093 
	C448.238190,247.011124 449.861908,247.011093 451.999847,247.011093 
	C451.999847,235.307632 451.996918,224.023743 452.000916,212.739853 
	C452.003510,205.464096 454.469727,203.013962 461.812775,203.003265 
	C468.645782,202.993317 475.478821,202.989304 482.311798,203.003601 
	C489.419403,203.018463 492.988403,206.582947 492.986572,213.618393 
	C492.983734,224.574081 492.985840,235.529770 492.985840,247.011124 
	C495.393311,247.011124 497.345490,247.011124 499.297668,247.011124 
	C523.129883,247.011139 546.962097,247.004944 570.794312,247.014084 
	C580.906860,247.017960 583.997375,250.126434 583.986816,260.199036 
	C583.981201,265.532135 583.992432,270.865204 583.998413,276.657593 
z"/>
<path fill="#1187CF" opacity="1.000000" stroke="none" 
	d="
M1635.961426,224.000000 
	C1635.963257,244.164703 1635.956543,263.829407 1635.970947,283.494110 
	C1635.977417,292.262878 1632.354980,295.962646 1623.600830,296.001251 
	C1617.601562,296.027710 1611.601074,296.075409 1605.602905,295.988159 
	C1598.242920,295.881104 1594.003418,291.554443 1594.002808,284.272644 
	C1593.997925,219.779053 1593.996460,155.285461 1594.003784,90.791862 
	C1594.004883,81.430962 1596.410645,78.999664 1605.557007,78.998665 
	C1611.889771,78.997978 1618.260986,79.440720 1624.545776,78.891563 
	C1633.212280,78.134270 1635.898682,83.265274 1635.915771,90.513344 
	C1636.016602,133.342178 1635.963013,176.171371 1635.961426,219.000443 
	C1635.961426,220.500290 1635.961426,222.000153 1635.961426,224.000000 
z"/>
<path fill="#1187CF" opacity="1.000000" stroke="none" 
	d="
M1698.000000,247.011185 
	C1750.124023,247.011185 1801.748779,247.158600 1853.371216,246.873123 
	C1862.492188,246.822693 1866.544434,251.823318 1866.058472,259.594421 
	C1865.726440,264.902557 1865.994385,270.248291 1865.994995,275.577209 
	C1865.995728,282.165222 1861.890625,286.549438 1855.285889,286.982269 
	C1854.290894,287.047455 1853.288208,287.000885 1852.289062,287.000885 
	C1795.003052,287.001251 1737.717163,287.002075 1680.431152,286.999725 
	C1672.538452,286.999390 1669.005249,283.488586 1669.000854,275.660400 
	C1668.997559,269.665344 1668.981689,263.670258 1669.004639,257.675293 
	C1669.032227,250.416183 1672.392456,247.019455 1679.514893,247.012177 
	C1685.509888,247.006073 1691.505005,247.011093 1698.000000,247.011185 
z"/>
<path fill="#00AAAA" opacity="1.000000" stroke="none" 
	d="
M1311.851562,238.484314 
	C1311.499512,237.658829 1311.032959,236.379532 1311.031860,235.099823 
	C1310.994629,193.130081 1311.000244,151.160294 1311.018677,109.190529 
	C1311.018921,108.373940 1311.250366,107.557457 1311.619751,106.420357 
	C1311.895020,150.076630 1311.924561,194.053482 1311.851562,238.484314 
z"/>
<path fill="#00AAFF" opacity="1.000000" stroke="none" 
	d="
M354.465912,194.884583 
	C354.058685,152.471512 354.029053,109.837746 354.017700,67.203972 
	C354.017456,66.385124 354.232880,65.566208 354.559479,64.399307 
	C354.847443,73.518227 354.992798,82.985207 354.987305,92.452103 
	C354.967529,126.522720 354.896881,160.593307 354.465912,194.884583 
z"/>
<path fill="#0080DF" opacity="1.000000" stroke="none" 
	d="
M558.889832,208.512177 
	C558.541199,207.698761 558.036560,206.423935 558.035095,205.148560 
	C557.993774,168.158966 558.000366,131.169327 558.018982,94.179695 
	C558.019348,93.362206 558.249756,92.544830 558.592407,91.381920 
	C558.874695,117.425484 558.949890,143.814499 558.994507,170.203568 
	C559.015808,182.819168 558.978943,195.434860 558.889832,208.512177 
z"/>
<path fill="#0080FF" opacity="1.000000" stroke="none" 
	d="
M1559.890381,210.539856 
	C1559.540161,209.904709 1559.038818,208.804901 1559.037109,207.704300 
	C1559.003418,186.518402 1559.025879,165.332382 1559.053955,144.146408 
	C1559.054688,143.663971 1559.254272,143.181808 1559.585693,142.352539 
	C1559.864258,164.695328 1559.918213,187.385086 1559.890381,210.539856 
z"/>
<path fill="#23B8FF" opacity="1.000000" stroke="none" 
	d="
M202.897705,119.552467 
	C183.356354,119.947617 163.592865,119.961464 143.354172,119.954514 
	C143.559296,119.628410 144.239655,119.056511 144.919937,119.056610 
	C164.171814,119.059502 183.423691,119.120049 202.897705,119.552467 
z"/>
<path fill="#00AAFF" opacity="1.000000" stroke="none" 
	d="
M743.509338,190.902435 
	C747.647949,190.551712 752.245422,190.087326 756.846802,190.046036 
	C763.325989,189.987854 769.807983,190.243317 776.620239,190.606277 
	C765.957825,190.891129 754.963867,190.934372 743.509338,190.902435 
z"/>
<path fill="#000000" opacity="1.000000" stroke="none" 
	d="
M1794.924316,153.805679 
	C1795.947144,154.695801 1797.817261,155.550720 1797.855957,156.481720 
	C1798.118042,162.789047 1798.185303,169.123260 1797.830322,175.421463 
	C1797.759766,176.674057 1795.605835,178.830643 1794.392578,178.844650 
	C1775.470337,179.063126 1756.544922,178.997589 1737.160278,178.997589 
	C1737.160278,170.740997 1737.149048,162.829468 1737.204956,154.918411 
	C1737.207031,154.625549 1737.864380,154.337357 1739.096436,154.009216 
	C1758.292236,153.916168 1776.608276,153.860931 1794.924316,153.805679 
z"/>
<path fill="#1C8EE3" opacity="1.000000" stroke="none" 
	d="
M1794.583496,153.585663 
	C1776.608276,153.860931 1758.292236,153.916168 1739.517822,153.893250 
	C1739.666260,153.567734 1740.273926,153.102737 1740.880005,153.104721 
	C1758.667725,153.163193 1776.455200,153.268127 1794.583496,153.585663 
z"/>
<path fill="#000000" opacity="1.000000" stroke="none" 
	d="
M1022.934082,210.029663 
	C1020.970825,223.355103 1012.509888,225.642899 1002.001770,225.987305 
	C995.072327,226.214432 988.260559,225.908447 982.223083,221.726242 
	C977.800903,218.663040 976.163879,214.048965 976.109924,209.244568 
	C975.861206,187.085815 975.964172,164.922729 976.007202,142.761322 
	C976.021240,135.546555 980.537231,128.518112 987.878723,127.412987 
	C995.687561,126.237526 1003.958679,126.310211 1011.768555,127.516945 
	C1018.546204,128.564194 1022.126099,134.224182 1022.560242,141.782593 
	C1022.114502,164.261536 1022.050842,186.136230 1022.043213,208.010925 
	C1022.042969,208.683731 1022.624084,209.356750 1022.934082,210.029663 
z"/>
<path fill="#00FFFF" opacity="1.000000" stroke="none" 
	d="
M1022.957703,209.560349 
	C1022.624084,209.356750 1022.042969,208.683731 1022.043213,208.010925 
	C1022.050842,186.136230 1022.114502,164.261536 1022.551636,142.179016 
	C1022.949463,164.344467 1022.965332,186.717758 1022.957703,209.560349 
z"/>
<path fill="#000000" opacity="1.000000" stroke="none" 
	d="
M1517.117920,211.983444 
	C1516.665771,218.156799 1513.619751,222.156097 1507.622925,224.153732 
	C1499.027588,227.017044 1490.473755,226.889084 1482.000244,224.101074 
	C1474.636963,221.678421 1471.009644,216.346054 1471.003540,208.717804 
	C1470.985840,186.757751 1470.990356,164.797684 1471.002319,142.837616 
	C1471.006470,135.157684 1475.152100,128.516235 1482.525391,127.491302 
	C1490.364136,126.401672 1498.602051,126.298515 1506.416748,127.451561 
	C1514.202515,128.600372 1516.932739,133.601303 1517.003418,143.082275 
	C1517.055298,166.640198 1517.086670,189.311813 1517.117920,211.983444 
z"/>
<path fill="#00ACFF" opacity="1.000000" stroke="none" 
	d="
M1517.402344,211.679108 
	C1517.086670,189.311813 1517.055298,166.640198 1517.099243,143.507599 
	C1517.425293,143.646210 1517.896240,144.246216 1517.895142,144.845306 
	C1517.852661,167.021851 1517.766846,189.198288 1517.402344,211.679108 
z"/>
<path fill="#000000" opacity="1.000000" stroke="none" 
	d="
M262.027985,287.162567 
	C260.761597,287.000793 259.495178,286.838989 258.134094,286.665100 
	C258.134094,275.185608 258.134094,263.909210 258.134094,252.323608 
	C275.989990,252.323608 293.704681,252.323608 311.987915,252.323608 
	C311.987915,263.247986 312.042267,274.175049 311.853516,285.097900 
	C311.842133,285.757111 309.894043,286.382874 307.947144,287.021667 
	C292.040771,287.066956 277.034363,287.114746 262.027985,287.162567 
z"/>
<path fill="#00CCFF" opacity="1.000000" stroke="none" 
	d="
M262.367004,287.394653 
	C277.034363,287.114746 292.040771,287.066956 307.509552,287.090820 
	C307.375153,287.416260 306.777466,287.893311 306.181671,287.890961 
	C291.689667,287.833893 277.197845,287.725708 262.367004,287.394653 
z"/>
</svg>